<svg xmlns="http://www.w3.org/2000/svg" viewBox="0 0 32 32" height="48" width="48"><title>food-drink-rice-ball</title><g><rect x="29.715" y="22.095" width="1.52" height="4.57" fill="#e6af45"></rect><rect x="28.185" y="26.665" width="1.53" height="1.53" fill="#e6af45"></rect><rect x="28.185" y="17.525" width="1.53" height="4.57" fill="#e6af45"></rect><rect x="26.665" y="23.625" width="1.52" height="1.52" fill="#e6af45"></rect><rect x="26.665" y="14.475" width="1.52" height="3.05" fill="#e6af45"></rect><polygon points="25.145 20.575 23.615 20.575 23.615 19.045 8.375 19.045 8.375 20.575 6.855 20.575 6.855 28.195 3.805 28.195 3.805 29.715 28.185 29.715 28.185 28.195 25.145 28.195 25.145 20.575" fill="#e6af45"></polygon><rect x="25.145" y="11.425" width="1.52" height="3.05" fill="#e6af45"></rect><rect x="23.615" y="16.005" width="1.53" height="1.52" fill="#e6af45"></rect><rect x="23.615" y="8.385" width="1.53" height="3.04" fill="#e6af45"></rect><rect x="22.095" y="6.855" width="1.52" height="1.53" fill="#e6af45"></rect><rect x="20.575" y="5.335" width="1.52" height="1.52" fill="#e6af45"></rect><rect x="19.045" y="14.475" width="1.53" height="1.53" fill="#e6af45"></rect><rect x="19.045" y="3.815" width="1.53" height="1.52" fill="#e6af45"></rect><rect x="17.525" y="16.005" width="1.52" height="1.52" fill="#e6af45"></rect><rect x="17.525" y="6.855" width="1.52" height="1.53" fill="#e6af45"></rect><rect x="15.995" y="8.385" width="1.53" height="1.52" fill="#e6af45"></rect><rect x="12.955" y="2.285" width="6.09" height="1.53" fill="#e6af45"></rect><rect x="11.425" y="16.005" width="1.53" height="1.52" fill="#e6af45"></rect><rect x="11.425" y="9.905" width="1.53" height="1.52" fill="#e6af45"></rect><rect x="11.425" y="3.815" width="1.53" height="1.52" fill="#e6af45"></rect><rect x="9.905" y="14.475" width="1.52" height="1.53" fill="#e6af45"></rect><rect x="9.905" y="5.335" width="1.52" height="1.52" fill="#e6af45"></rect><rect x="8.375" y="6.855" width="1.53" height="1.53" fill="#e6af45"></rect><rect x="6.855" y="8.385" width="1.52" height="3.04" fill="#e6af45"></rect><rect x="5.335" y="11.425" width="1.52" height="3.05" fill="#e6af45"></rect><rect x="3.805" y="23.625" width="1.53" height="1.52" fill="#e6af45"></rect><rect x="3.805" y="14.475" width="1.53" height="3.05" fill="#e6af45"></rect><rect x="2.285" y="26.665" width="1.52" height="1.53" fill="#e6af45"></rect><rect x="2.285" y="17.525" width="1.52" height="4.57" fill="#e6af45"></rect><rect x="0.765" y="22.095" width="1.52" height="4.57" fill="#e6af45"></rect></g></svg>