<svg xmlns="http://www.w3.org/2000/svg" viewBox="0 0 32 32" height="48" width="48"><title>entertainment-events-hobbies-chess-knight</title><g><rect x="26.67" y="26.66" width="1.52" height="3.05" fill="#e6af45"></rect><rect x="25.15" y="9.9" width="1.52" height="3.05" fill="#e6af45"></rect><rect x="6.86" y="29.71" width="19.81" height="1.53" fill="#e6af45"></rect><rect x="23.62" y="12.95" width="1.53" height="1.52" fill="#e6af45"></rect><rect x="23.62" y="8.38" width="1.53" height="1.52" fill="#e6af45"></rect><rect x="22.1" y="17.52" width="1.52" height="3.05" fill="#e6af45"></rect><rect x="22.1" y="6.86" width="1.52" height="1.52" fill="#e6af45"></rect><polygon points="19.05 14.47 19.05 16 20.57 16 20.57 17.52 22.1 17.52 22.1 16 23.62 16 23.62 14.47 19.05 14.47" fill="#e6af45"></polygon><rect x="20.57" y="9.9" width="1.53" height="1.53" fill="#e6af45"></rect><rect x="20.57" y="3.81" width="1.53" height="3.05" fill="#e6af45"></rect><rect x="19.05" y="2.28" width="1.52" height="1.53" fill="#e6af45"></rect><rect x="17.53" y="12.95" width="1.52" height="1.52" fill="#e6af45"></rect><rect x="17.53" y="6.86" width="1.52" height="1.52" fill="#e6af45"></rect><rect x="17.53" y="0.76" width="1.52" height="1.52" fill="#e6af45"></rect><rect x="16" y="11.43" width="1.53" height="1.52" fill="#e6af45"></rect><rect x="16" y="5.33" width="1.53" height="1.53" fill="#e6af45"></rect><rect x="14.48" y="6.86" width="1.52" height="1.52" fill="#e6af45"></rect><rect x="14.48" y="2.28" width="3.05" height="1.53" fill="#e6af45"></rect><rect x="12.96" y="0.76" width="1.52" height="1.52" fill="#e6af45"></rect><path d="M11.43,20.57h1.53V17.52H11.43V16H9.91V8.38h1.52V6.86h1.53V2.28H9.91V3.81H6.86V5.33H5.34V6.86H3.81V16H5.34v1.52H6.86v1.53H9.91v3.04h1.52ZM8.38,16H6.86V14.47H8.38Zm0-4.57H5.34V9.9H8.38Zm0-4.57V5.33H9.91V6.86Z" fill="#e6af45"></path><polygon points="26.67 26.66 26.67 25.14 25.15 25.14 25.15 20.57 23.62 20.57 23.62 25.14 9.91 25.14 9.91 22.09 8.38 22.09 8.38 25.14 6.86 25.14 6.86 26.66 26.67 26.66" fill="#e6af45"></polygon><rect x="5.34" y="26.66" width="1.52" height="3.05" fill="#e6af45"></rect></g></svg>