<svg xmlns="http://www.w3.org/2000/svg" viewBox="0 0 32 32" height="48" width="48"><title>music-headphones-human</title><g><rect x="29.715" y="12.955" width="1.52" height="6.09" fill="#e6af45"></rect><polygon points="9.905 12.955 11.425 12.955 11.425 11.425 12.955 11.425 12.955 9.905 19.045 9.905 19.045 11.425 20.575 11.425 20.575 9.905 25.145 9.905 25.145 11.425 26.665 11.425 26.665 23.615 28.195 23.615 28.195 20.575 29.715 20.575 29.715 19.045 28.195 19.045 28.195 12.955 29.715 12.955 29.715 11.425 28.195 11.425 28.195 5.335 26.665 5.335 26.665 6.855 25.145 6.855 25.145 5.335 22.095 5.335 22.095 3.805 11.425 3.805 11.425 5.335 9.905 5.335 9.905 6.855 8.385 6.855 8.385 9.905 6.855 9.905 6.855 5.335 5.335 5.335 5.335 9.905 3.815 9.905 3.815 11.425 9.905 11.425 9.905 12.955" fill="#e6af45"></polygon><rect x="25.145" y="23.615" width="1.52" height="1.53" fill="#e6af45"></rect><rect x="25.145" y="3.805" width="1.52" height="1.53" fill="#e6af45"></rect><rect x="23.615" y="20.575" width="1.53" height="1.52" fill="#e6af45"></rect><rect x="23.615" y="15.995" width="1.53" height="3.05" fill="#e6af45"></rect><rect x="23.615" y="2.285" width="1.53" height="1.52" fill="#e6af45"></rect><path d="M11.425,25.145V28.2H8.385v1.52H5.335v1.52h24.38v-1.52h-3.05V28.2h-3.05v-1.53h1.53v-1.52Zm10.67,4.57h-6.09V28.2h-3.05v-1.53H22.1Z" fill="#e6af45"></path><rect x="19.045" y="22.095" width="4.57" height="1.52" fill="#e6af45"></rect><rect x="17.525" y="20.575" width="1.52" height="1.52" fill="#e6af45"></rect><rect x="16.005" y="15.995" width="1.52" height="3.05" fill="#e6af45"></rect><rect x="16.005" y="11.425" width="3.04" height="1.53" fill="#e6af45"></rect><rect x="11.425" y="12.955" width="1.53" height="6.09" fill="#e6af45"></rect><rect x="9.905" y="0.765" width="13.71" height="1.52" fill="#e6af45"></rect><rect x="9.905" y="23.615" width="1.52" height="1.53" fill="#e6af45"></rect><rect x="9.905" y="19.045" width="1.52" height="1.53" fill="#e6af45"></rect><polygon points="3.815 20.575 3.815 22.095 8.385 22.095 8.385 23.615 9.905 23.615 9.905 20.575 3.815 20.575" fill="#e6af45"></polygon><rect x="8.385" y="2.285" width="1.52" height="1.52" fill="#e6af45"></rect><rect x="6.855" y="3.805" width="1.53" height="1.53" fill="#e6af45"></rect><rect x="5.335" y="12.955" width="1.52" height="1.52" fill="#e6af45"></rect><rect x="3.815" y="14.475" width="1.52" height="3.05" fill="#e6af45"></rect><rect x="2.285" y="19.045" width="1.53" height="1.53" fill="#e6af45"></rect><rect x="2.285" y="11.425" width="1.53" height="1.53" fill="#e6af45"></rect><rect x="0.765" y="12.955" width="1.52" height="6.09" fill="#e6af45"></rect></g></svg>