<svg xmlns="http://www.w3.org/2000/svg" viewBox="0 0 32 32" height="48" width="48"><title>interface-essential-navigation-menu-3</title><g><rect x="29.71" y="3.81" width="1.53" height="24.38" fill="#e6af45"></rect><rect x="28.19" y="28.19" width="1.52" height="1.52" fill="#e6af45"></rect><rect x="28.19" y="2.28" width="1.52" height="1.53" fill="#e6af45"></rect><rect x="3.81" y="29.71" width="24.38" height="1.53" fill="#e6af45"></rect><polygon points="25.14 20.57 6.86 20.57 6.86 22.09 5.33 22.09 5.33 25.14 6.86 25.14 6.86 23.62 25.14 23.62 25.14 25.14 26.67 25.14 26.67 22.09 25.14 22.09 25.14 20.57" fill="#e6af45"></polygon><polygon points="25.14 12.95 6.86 12.95 6.86 14.47 5.33 14.47 5.33 17.52 6.86 17.52 6.86 16 25.14 16 25.14 17.52 26.67 17.52 26.67 14.47 25.14 14.47 25.14 12.95" fill="#e6af45"></polygon><polygon points="25.14 5.33 6.86 5.33 6.86 6.85 5.33 6.85 5.33 9.9 6.86 9.9 6.86 8.38 25.14 8.38 25.14 9.9 26.67 9.9 26.67 6.85 25.14 6.85 25.14 5.33" fill="#e6af45"></polygon><rect x="6.86" y="25.14" width="18.28" height="1.52" fill="#e6af45"></rect><rect x="6.86" y="17.52" width="18.28" height="1.52" fill="#e6af45"></rect><rect x="6.86" y="9.9" width="18.28" height="1.53" fill="#e6af45"></rect><rect x="3.81" y="0.76" width="24.38" height="1.52" fill="#e6af45"></rect><rect x="2.29" y="28.19" width="1.52" height="1.52" fill="#e6af45"></rect><rect x="2.29" y="2.28" width="1.52" height="1.53" fill="#e6af45"></rect><rect x="0.76" y="3.81" width="1.53" height="24.38" fill="#e6af45"></rect></g></svg>