<svg xmlns="http://www.w3.org/2000/svg" viewBox="0 0 32 32" height="48" width="48"><title>entertainment-events-hobbies-card-game-card-club</title><g><rect x="28.945" y="6.1" width="1.53" height="6.09" fill="#e6af45"></rect><rect x="27.425" y="12.19" width="1.52" height="4.57" fill="#e6af45"></rect><rect x="25.905" y="16.76" width="1.52" height="6.1" fill="#e6af45"></rect><rect x="24.375" y="22.86" width="1.53" height="6.09" fill="#e6af45"></rect><polygon points="22.855 6.1 28.945 6.1 28.945 4.57 22.855 4.57 22.855 1.52 21.325 1.52 21.325 30.48 24.375 30.48 24.375 28.95 22.855 28.95 22.855 6.1" fill="#e6af45"></polygon><rect x="3.045" y="30.48" width="18.28" height="1.52" fill="#e6af45"></rect><rect x="18.285" y="25.9" width="1.52" height="3.05" fill="#e6af45"></rect><polygon points="13.715 9.14 10.665 9.14 10.665 12.19 7.615 12.19 7.615 15.24 10.665 15.24 10.665 16.76 9.135 16.76 9.135 18.29 15.235 18.29 15.235 16.76 13.715 16.76 13.715 15.24 16.755 15.24 16.755 12.19 13.715 12.19 13.715 9.14" fill="#e6af45"></polygon><rect x="4.565" y="3.05" width="1.53" height="3.05" fill="#e6af45"></rect><rect x="3.045" width="18.28" height="1.52" fill="#e6af45"></rect><rect x="1.525" y="1.52" width="1.52" height="28.96" fill="#e6af45"></rect></g></svg>