<svg xmlns="http://www.w3.org/2000/svg" viewBox="0 0 32 32" height="48" width="48"><title>entertainment-events-hobbies-board-game-dice</title><g><path d="M17.525,31.24V29.72h3.04V28.19h3.05V26.67h3.05V25.14h1.52V23.62h1.53V8.38h-1.53V6.86h-1.52V8.38h-3.05V9.91h-3.05v1.52h-3.04v1.52h-3.05v1.53H16V29.72h-1.52v1.52Zm6.09-18.29h3.05v1.53h-3.05Zm-4.57,9.15H22.1v3.04h-3.05Z" fill="#e6af45"></path><rect x="23.615" y="5.34" width="3.05" height="1.52" fill="#e6af45"></rect><rect x="20.565" y="3.81" width="3.05" height="1.53" fill="#e6af45"></rect><rect x="17.525" y="2.29" width="3.04" height="1.52" fill="#e6af45"></rect><rect x="14.475" y="6.86" width="3.05" height="3.05" fill="#e6af45"></rect><rect x="14.475" y="0.76" width="3.05" height="1.53" fill="#e6af45"></rect><rect x="11.425" y="28.19" width="3.05" height="1.53" fill="#e6af45"></rect><rect x="11.425" y="11.43" width="3.05" height="1.52" fill="#e6af45"></rect><rect x="11.425" y="2.29" width="3.05" height="1.52" fill="#e6af45"></rect><rect x="11.425" y="22.1" width="3.05" height="3.04" fill="#e6af45"></rect><rect x="11.425" y="16" width="3.05" height="3.05" fill="#e6af45"></rect><rect x="8.375" y="26.67" width="3.05" height="1.52" fill="#e6af45"></rect><rect x="8.375" y="9.91" width="3.05" height="1.52" fill="#e6af45"></rect><rect x="8.375" y="3.81" width="3.05" height="1.53" fill="#e6af45"></rect><rect x="5.335" y="25.14" width="3.04" height="1.53" fill="#e6af45"></rect><rect x="5.335" y="8.38" width="3.04" height="1.53" fill="#e6af45"></rect><rect x="5.335" y="5.34" width="3.04" height="1.52" fill="#e6af45"></rect><rect x="5.335" y="19.05" width="3.04" height="3.05" fill="#e6af45"></rect><rect x="5.335" y="12.95" width="3.04" height="3.05" fill="#e6af45"></rect><rect x="3.805" y="23.62" width="1.53" height="1.52" fill="#e6af45"></rect><rect x="3.805" y="6.86" width="1.53" height="1.52" fill="#e6af45"></rect><rect x="2.285" y="8.38" width="1.52" height="15.24" fill="#e6af45"></rect></g></svg>