<svg xmlns="http://www.w3.org/2000/svg" viewBox="0 0 32 32" height="48" width="48"><title>logo-discord</title><g><path d="M30.47,9.14H28.95V6.09H27.42V4.57H25.9V3.05H22.85V1.52H19.81V0H12.19V1.52H9.14V3.05H6.09V4.57H4.57V6.09H3.04V9.14H1.52v3.05H0v7.62H1.52v3.05H3.04V25.9H4.57v1.53H6.09v1.52H9.14v1.53h3.05V32h7.62V30.48h3.04V28.95H25.9V27.43h1.52V25.9h1.53V22.86h1.52V19.81H32V12.19H30.47ZM28.95,21.33H27.42v1.53H25.9v1.52H24.38V25.9h-6.1V24.38h4.57V21.33H9.14v3.05h4.57V25.9H7.61V24.38H6.09V22.86H4.57V21.33H3.04V13.71H4.57V10.67H6.09V9.14H7.61V7.62h6.1V9.14h4.57V7.62h6.1V9.14H25.9v1.53h1.52v3.04h1.53Z" fill="#5865f2"></path><rect x="18.28" y="13.71" width="3.05" height="3.05" fill="#5865f2"></rect><rect x="10.66" y="13.71" width="3.05" height="3.05" fill="#5865f2"></rect></g></svg>