<svg xmlns="http://www.w3.org/2000/svg" viewBox="0 0 32 32" height="48" width="48"><title>entertainment-events-hobbies-ticket</title><g><rect x="30.47" y="24.38" width="1.53" height="6.1" fill="#e6af45"></rect><rect x="30.47" y="12.19" width="1.53" height="6.1" fill="#e6af45"></rect><rect x="28.95" y="22.86" width="1.52" height="1.52" fill="#e6af45"></rect><rect x="28.95" y="18.29" width="1.52" height="1.52" fill="#e6af45"></rect><polygon points="24.38 30.48 24.38 25.9 22.85 25.9 22.85 30.48 1.52 30.48 1.52 32 30.47 32 30.47 30.48 24.38 30.48" fill="#e6af45"></polygon><rect x="27.42" y="19.81" width="1.53" height="3.05" fill="#e6af45"></rect><rect x="25.9" y="3.05" width="1.52" height="3.05" fill="#e6af45"></rect><rect x="24.38" y="6.1" width="1.52" height="3.04" fill="#e6af45"></rect><rect x="24.38" y="1.52" width="1.52" height="1.53" fill="#e6af45"></rect><rect x="22.85" y="19.81" width="1.53" height="3.05" fill="#e6af45"></rect><rect x="21.33" width="3.05" height="1.52" fill="#e6af45"></rect><rect x="18.28" y="1.52" width="3.05" height="1.53" fill="#e6af45"></rect><polygon points="19.8 16.76 7.61 16.76 7.61 18.29 13.71 18.29 13.71 19.81 12.19 19.81 12.19 21.33 10.66 21.33 10.66 22.86 9.14 22.86 9.14 24.38 7.61 24.38 7.61 25.9 19.8 25.9 19.8 24.38 21.33 24.38 21.33 18.29 19.8 18.29 19.8 16.76" fill="#e6af45"></polygon><rect x="18.28" y="6.1" width="1.52" height="3.04" fill="#e6af45"></rect><polygon points="16.76 6.1 18.28 6.1 18.28 3.05 15.23 3.05 15.23 4.57 16.76 4.57 16.76 6.1" fill="#e6af45"></polygon><rect x="12.19" y="4.57" width="3.04" height="1.53" fill="#e6af45"></rect><rect x="9.14" y="6.1" width="3.05" height="1.52" fill="#e6af45"></rect><rect x="6.09" y="7.62" width="3.05" height="1.52" fill="#e6af45"></rect><rect x="6.09" y="18.29" width="1.52" height="6.09" fill="#e6af45"></rect><rect x="3.04" y="19.81" width="1.53" height="3.05" fill="#e6af45"></rect><polygon points="22.85 12.19 22.85 16.76 24.38 16.76 24.38 12.19 30.47 12.19 30.47 10.67 27.42 10.67 27.42 9.14 25.9 9.14 25.9 10.67 21.33 10.67 21.33 9.14 19.8 9.14 19.8 10.67 16.76 10.67 16.76 7.62 13.71 7.62 13.71 9.14 10.66 9.14 10.66 10.67 6.09 10.67 6.09 9.14 3.04 9.14 3.04 10.67 1.52 10.67 1.52 12.19 22.85 12.19" fill="#e6af45"></polygon><rect x="1.52" y="22.86" width="1.52" height="1.52" fill="#e6af45"></rect><rect x="1.52" y="18.29" width="1.52" height="1.52" fill="#e6af45"></rect><rect y="24.38" width="1.52" height="6.1" fill="#e6af45"></rect><rect y="12.19" width="1.52" height="6.1" fill="#e6af45"></rect></g></svg>