<svg xmlns="http://www.w3.org/2000/svg" viewBox="0 0 32 32" height="48" width="48"><title>entertainment-events-hobbies-game-machines-arcade-2</title><g><path d="M30.47,4.57H28.95V3.05H27.42V1.52H25.9V0H3.04V6.1H4.57V7.62H6.09V6.1H24.38V7.62H25.9V22.86H24.38v1.52H22.85V25.9H3.04V24.38H1.52V25.9H0V32H1.52V27.43H21.33V32H32V6.1H30.47Zm-24.38,0H4.57V1.52H6.09Zm3.05,0H7.61V1.52H9.14Zm13.71,0H10.66V1.52H22.85Zm7.62,10.67H28.95V7.62H27.42V6.1H25.9V4.57H24.38V3.05H25.9V4.57h1.52V6.1h1.53V7.62h1.52Z" fill="#e6af45"></path><rect x="19.8" y="15.24" width="1.53" height="1.52" fill="#e6af45"></rect><rect x="16.76" y="22.86" width="4.57" height="1.52" fill="#e6af45"></rect><rect x="18.28" y="12.19" width="1.52" height="1.52" fill="#e6af45"></rect><polygon points="19.8 32 19.8 28.95 15.23 28.95 15.23 32 16.76 32 16.76 30.48 18.28 30.48 18.28 32 19.8 32" fill="#e6af45"></polygon><rect x="13.71" y="16.76" width="6.09" height="1.53" fill="#e6af45"></rect><rect x="13.71" y="12.19" width="1.52" height="1.52" fill="#e6af45"></rect><rect x="12.19" y="15.24" width="1.52" height="1.52" fill="#e6af45"></rect><rect x="10.66" y="22.86" width="1.53" height="1.52" fill="#e6af45"></rect><path d="M24.38,21.33V9.14H9.14V21.33ZM10.66,10.67H22.85v9.14H10.66Z" fill="#e6af45"></path><rect x="7.61" y="22.86" width="1.53" height="1.52" fill="#e6af45"></rect><rect x="6.09" y="7.62" width="1.52" height="13.71" fill="#e6af45"></rect><rect x="4.57" y="21.33" width="1.52" height="1.53" fill="#e6af45"></rect><rect x="3.04" y="22.86" width="1.53" height="1.52" fill="#e6af45"></rect></g></svg>