<svg xmlns="http://www.w3.org/2000/svg" viewBox="0 0 32 32" height="48" width="48"><title>interface-essential-pacman-loading</title><g><g><path d="M16.76,19.81h1.52v1.52h3.05v1.53h1.52v1.52H21.33V25.9H18.28v1.53H16.76v1.52h1.52v1.53h3.05V32H25.9V30.48h3.05V28.95h1.52V25.9H32V21.33H30.47V18.29H28.95V16.76H25.9V15.24H21.33v1.52H18.28v1.53H16.76Zm7.62,0H25.9v1.52H24.38Z" fill="#e6af45"></path><rect x="28.95" y="6.09" width="1.52" height="1.53" fill="#e6af45"></rect><rect x="24.38" y="10.67" width="1.52" height="1.52" fill="#e6af45"></rect><rect x="24.38" y="6.09" width="1.52" height="1.53" fill="#e6af45"></rect><rect x="24.38" y="1.52" width="1.52" height="1.53" fill="#e6af45"></rect><rect x="19.8" y="6.09" width="1.53" height="1.53" fill="#e6af45"></rect><rect x="15.23" y="22.86" width="1.53" height="1.52" fill="#e6af45"></rect><rect x="15.23" y="6.09" width="1.53" height="7.62" fill="#e6af45"></rect><rect x="13.71" y="13.71" width="1.52" height="1.53" fill="#e6af45"></rect><rect x="13.71" y="3.05" width="1.52" height="3.04" fill="#e6af45"></rect><rect x="12.19" y="12.19" width="1.52" height="1.52" fill="#e6af45"></rect><rect x="12.19" y="1.52" width="1.52" height="1.53" fill="#e6af45"></rect><rect x="10.66" y="22.86" width="1.53" height="1.52" fill="#e6af45"></rect><rect x="10.66" y="13.71" width="1.53" height="1.53" fill="#e6af45"></rect><rect x="10.66" y="6.09" width="1.53" height="1.53" fill="#e6af45"></rect><rect x="9.14" y="12.19" width="1.52" height="1.52" fill="#e6af45"></rect><rect x="7.61" y="13.71" width="1.53" height="1.53" fill="#e6af45"></rect><rect x="7.61" y="6.09" width="1.53" height="1.53" fill="#e6af45"></rect><rect x="6.09" y="27.43" width="1.52" height="1.52" fill="#e6af45"></rect><rect x="6.09" y="22.86" width="1.52" height="1.52" fill="#e6af45"></rect><rect x="6.09" y="18.29" width="1.52" height="1.52" fill="#e6af45"></rect><rect x="6.09" y="12.19" width="1.52" height="1.52" fill="#e6af45"></rect><rect x="4.57" width="7.62" height="1.52" fill="#e6af45"></rect><rect x="4.57" y="13.71" width="1.52" height="1.53" fill="#e6af45"></rect><rect x="3.04" y="12.19" width="1.53" height="1.52" fill="#e6af45"></rect><rect x="3.04" y="1.52" width="1.53" height="1.53" fill="#e6af45"></rect><rect x="1.52" y="22.86" width="1.52" height="1.52" fill="#e6af45"></rect><rect x="1.52" y="13.71" width="1.52" height="1.53" fill="#e6af45"></rect><rect x="1.52" y="3.05" width="1.52" height="3.04" fill="#e6af45"></rect></g><rect y="6.09" width="1.52" height="7.62" fill="#e6af45"></rect></g></svg>