<?xml version="1.0" encoding="utf-8"?>
<!-- Generator: Adobe Illustrator 16.0.0, SVG Export Plug-In . SVG Version: 6.00 Build 0)  -->
<svg version="1.2" baseProfile="tiny" id="Calque_1"
	 xmlns="http://www.w3.org/2000/svg" xmlns:xlink="http://www.w3.org/1999/xlink" x="0px" y="0px" width="150.812px"
	 height="141.732px" viewBox="0 0 150.812 141.732" xml:space="preserve">
<line fill="none" x1="236.789" y1="70.866" x2="238.789" y2="67.866"/>
<g>
	<line fill="none" x1="0" y1="92.516" x2="3.859" y2="94.516"/>
</g>
<g>
	<path fill="none" d="M42.916,122.388c0.822-1.218,1.303-2.181,1.444-2.86c0.087-0.368,0.03-0.567-0.169-0.595
		c-0.425,0-0.963,0.595-1.671,1.784c-0.651,1.161-1.132,2.379-1.415,3.682C41.672,123.975,42.294,123.295,42.916,122.388z"/>
	<path fill="none" d="M76.111,19.833c3.67-2.303,7.322-4.63,10.979-6.951c2.873-1.823,2.87-1.828,0.554-4.452
		c-5.416,3.435-10.752,6.819-16.073,10.193C72.831,21.032,73.809,21.28,76.111,19.833z"/>
	<path fill="none" d="M69.406,16.063c4.928-3.061,9.809-6.193,14.726-9.325C79.17,2.599,53.688,2.25,48.445,6.245
		c8.049,0.929,14.457,4.182,19.465,9.544C68.176,16.078,69.096,16.257,69.406,16.063z"/>
	<path fill="none" d="M55.827,122.388c0.821-1.218,1.304-2.181,1.445-2.86c0.083-0.368,0.027-0.567-0.171-0.595
		c-0.426,0-0.963,0.595-1.672,1.784c-0.651,1.161-1.133,2.379-1.416,3.682C54.58,123.975,55.204,123.295,55.827,122.388z"/>
	<path fill="none" d="M4.431,61.269c0.674,0.941,1.269,1.77,2.012,2.813c2.056-1.298,3.995-2.508,5.916-3.735
		c2.42-1.54,4.814-3.11,7.247-4.636c2.855-1.798,2.865-1.784,1.228-4.843C15.348,54.346,9.998,57.741,4.431,61.269z"/>
	<path fill="none" d="M65.276,18.503c-3.429-4.018-7.707-6.765-13.084-8.163c-17.177-4.467-34.377,8.688-32.659,25.111
		c0.318,3.036,1.628,5.918,2.526,8.854c0.314,1.023,0.926,1.336,2.143,0.56c13.447-8.597,26.918-17.163,40.376-25.742
		C64.748,19.018,64.879,18.86,65.276,18.503z"/>
	<path fill="none" d="M26.252,47.412c2.336,1.914,3.331,1.985,5.671,0.502c10.744-6.815,21.44-13.709,32.282-20.397
		c2.434-1.501,2.332-3.078,1.877-5.397C52.717,30.606,39.505,38.995,26.252,47.412z"/>
	<path fill="none" d="M18.244,48.56c0.505-0.34,1.037-1.311,0.871-1.727c-3.892-9.727-3.905-9.719-2.419-20.45
		c-5.71,3.058-14.204,23.762-12.625,31.168c2.008-1.26,3.939-2.465,5.865-3.68C12.718,52.117,15.528,50.396,18.244,48.56z"/>
	<path fill="none" d="M126.603,118.933c-0.677,0-1.33,0.566-1.952,1.671c-0.653,1.132-1.134,2.35-1.39,3.681
		c-0.196,0.822-0.252,1.586-0.225,2.322c0,0.737,0.17,1.332,0.453,1.784c0.283,0.482,0.764,0.708,1.39,0.708
		c0.847,0,1.582-0.453,2.181-1.388c0.622-0.935,1.047-1.982,1.271-3.144c0.2-0.907,0.283-1.784,0.228-2.662
		c-0.027-0.879-0.228-1.586-0.539-2.153C127.682,119.216,127.229,118.933,126.603,118.933z"/>
	<path fill="none" d="M108.151,109.104h-0.113l-1.646,8.129c3.287,0,5.412-2.067,5.837-4.107
		C112.683,111.116,111.463,109.104,108.151,109.104z"/>
	<path fill="none" d="M106.479,119.953h-0.594c-1.134,5.325-2.153,9.148-3.739,11.754c0.85,0.765,1.728,1.104,2.578,1.104
		c2.774,0,5.325-3.455,6.034-6.769C111.407,122.954,110.443,119.953,106.479,119.953z"/>
	<path fill="#E6AF44" d="M25.871,53.763c0.128-0.676-0.241-1.396-0.438-2.336c0.678,0.148,1.13,0.139,1.413,0.327
		c2.236,1.477,4.175,0.773,6.387-0.738c4.265-2.916,8.716-5.597,13.095-8.371c0.64-0.403,1.296-0.78,2.17-1.305
		c1.798,2.435,3.546,4.765,5.257,7.12c1.524,2.101,3.048,4.203,4.572,6.304c-6.991,4.47-11.65,12.348-11.65,21.349
		c0,13.942,11.146,25.245,24.895,25.245c13.747,0,24.9-11.302,24.9-25.245c0-3.995-0.94-7.759-2.571-11.115
		c0.059,0.366,0.124,0.733,0.166,1.103c0.187,1.569,0.159,3.131-0.063,4.682c-0.187,1.281-0.512,2.51-1.157,3.605
		c-0.702,1.184-1.666,1.964-3.024,2.091c-0.926,0.083-1.791-0.168-2.562-0.751c-0.739-0.558-1.269-1.313-1.648-2.173
		c-0.335-0.739-0.619-1.501-0.92-2.255c-0.045-0.114-0.113-0.169-0.225-0.188c-0.432-0.08-0.805,0.043-1.146,0.323
		c-0.149,0.125-0.222,0.278-0.208,0.479c0.052,0.68,0.09,1.361,0.159,2.041c0.086,0.859,0.135,1.716,0.018,2.57
		c-0.148,1.125-0.484,2.18-0.988,3.168c-0.488,0.952-1.093,1.8-1.873,2.486c-0.857,0.747-1.812,1.29-2.893,1.583
		c-1.093,0.299-2.191,0.387-3.318,0.112c-1.099-0.27-2.084-0.787-2.92-1.627c-0.951-0.95-1.531-2.121-1.881-3.434
		c-0.203-0.763-0.317-1.54-0.407-2.321c-0.028-0.232-0.024-0.236-0.249-0.245c-0.629-0.027-1.262-0.063-1.891-0.072
		c-2.07-0.031-4.137-0.073-6.21-0.19c-1.518-0.085-3.034-0.164-4.548-0.06c-1.259,0.088-2.485,0.293-3.656,0.775
		c-0.391,0.164-0.768,0.368-1.013,0.758c-0.363,0.569-0.539,1.206-0.595,1.896c-0.034,0.371-0.076,0.746-0.169,1.098
		c-0.094,0.365-0.412,0.533-0.768,0.457c-0.173-0.037-0.356-0.096-0.515-0.188c-0.861-0.505-1.569-1.203-2.108-2.083
		c-0.218-0.361-0.263-0.756-0.104-1.157c0.349-0.864,0.818-1.643,1.417-2.32c0.566-0.634,1.213-1.148,1.987-1.45
		c0.607-0.235,1.24-0.304,1.883-0.328c1.635-0.063,3.266,0.027,4.9,0.128c1.635,0.102,3.267,0.15,4.901,0.128
		c1.188-0.018,2.381-0.026,3.573-0.005c1.058,0.017,2.114,0.083,3.176,0.121c0.076,0.003,0.173-0.016,0.235-0.064
		c0.857-0.675,1.793-1.213,2.771-1.663c1.134-0.521,2.281-1.005,3.425-1.496c1.03-0.442,2.073-0.843,3.151-1.156
		c0.685-0.199,1.373-0.365,2.092-0.354c0.324,0.004,0.646,0.031,0.933,0.257c0.101,0.079,0.225,0.122,0.349,0.159
		c0.598,0.189,1.262-0.074,1.497-0.621c0.106-0.251,0.162-0.535,0.221-0.808c0.042-0.22,0.132-0.397,0.28-0.546
		c0.349-0.338,0.691-0.688,1.051-1.016c0.978-0.881,2.028-1.638,3.148-2.297c0.861-0.504,1.756-0.93,2.696-1.241
		c0.532-0.176,1.071-0.319,1.606-0.467c-4.431-6.958-12.131-11.575-20.908-11.575c-3.553,0-6.926,0.767-9.981,2.127
		c-3.027-4.166-6.052-8.331-9.072-12.5c-0.249-0.344-0.438-0.728-0.76-1.265c3.279-2.104,6.493-4.18,9.722-6.235
		c2.008-1.278,3.988-2.606,6.072-3.769c1.963-1.095,2.885-2.46,2.547-4.445c-0.086-0.518,0.041-1.08,0.068-1.602
		c0.229-0.027,0.336-0.066,0.363-0.039c2.465,2.375,4.776,1.29,7.41-0.508c4.73-3.228,9.659-6.205,14.487-9.311
		c1.933-1.241,1.873-1.833,0.972-3.609c-2.219-4.368-6.235-6.435-11.246-7.687C67.592-1.612,53.163-0.349,38.807,5.803
		c-2.833,1.214-5.557,2.653-8.474,4.057c-0.521-0.684-0.902-1.537-1.61-2c-0.643-0.42-1.652-0.411-2.495-0.593
		c-0.215,0.792-0.674,1.631-0.574,2.366c0.132,0.95,1.259,1.964,0.961,2.687c-0.355,0.863-1.783,1.423-2.706,2.155
		C8.374,26.788,0.042,41.757,0,59.745c-0.007,3.374,2.803,5.403,4.655,7.848c0.267,0.347,1.938,0.205,2.613-0.208
		c5.861-3.589,11.677-7.245,17.403-11.014C25.395,55.897,25.688,54.667,25.871,53.763z M64.205,27.517
		c-10.842,6.688-21.538,13.582-32.282,20.397c-2.34,1.483-3.335,1.412-5.671-0.502c13.253-8.417,26.465-16.805,39.83-25.292
		C66.537,24.439,66.639,26.015,64.205,27.517z M87.09,12.882c-3.656,2.321-7.309,4.648-10.979,6.951
		c-2.303,1.447-3.28,1.199-4.541-1.21c5.321-3.374,10.657-6.758,16.073-10.193C89.96,11.054,89.963,11.059,87.09,12.882z
		 M84.132,6.738c-4.917,3.132-9.798,6.264-14.726,9.325c-0.311,0.194-1.23,0.015-1.496-0.274
		c-5.008-5.362-11.416-8.615-19.465-9.544C53.688,2.25,79.17,2.599,84.132,6.738z M16.696,26.383
		c-1.486,10.73-1.473,10.723,2.419,20.45c0.166,0.416-0.366,1.387-0.871,1.727c-2.716,1.836-5.526,3.557-8.308,5.312
		c-1.926,1.215-3.857,2.419-5.865,3.68C2.492,50.146,10.986,29.441,16.696,26.383z M19.605,55.71
		c-2.433,1.526-4.827,3.096-7.247,4.636c-1.921,1.227-3.86,2.437-5.916,3.735c-0.743-1.043-1.338-1.872-2.012-2.813
		c5.567-3.528,10.917-6.922,16.402-10.401C22.471,53.927,22.461,53.912,19.605,55.71z M22.06,44.307
		c-0.898-2.936-2.208-5.819-2.526-8.854C17.815,19.029,35.016,5.874,52.192,10.341c5.377,1.398,9.655,4.145,13.084,8.163
		c-0.397,0.357-0.528,0.514-0.698,0.621C51.12,27.703,37.649,36.269,24.202,44.866C22.985,45.643,22.374,45.33,22.06,44.307z"/>
	<path fill="#E6AF44" d="M29.614,106.075c-7.251,0-12.348,7.619-13.962,15.208c-1.586,7.534,0.227,15.068,6.798,15.068
		c3.171,0,4.928-1.699,5.976-4.22c0.368,2.804,2.123,4.22,6.345,4.22c-1.02-0.481-1.22-2.265-0.851-3.965
		c0.143-0.651,0.367-1.331,0.68-1.87c-1.927,0-1.077-5.211-0.51-7.845l0.368-1.53h-8.864c-0.652,0-1.333,1.672-1.587,2.805
		c-0.112,0.594-0.142,1.048,0.058,1.048h0.055c1.559-0.765,2.89-0.765,5.185-0.765c-0.682,3.2-1.701,7.307-4.814,7.307
		c-3.314,0-3.712-5.381-2.551-10.79c1.134-5.411,3.824-10.82,6.629-10.82c1.133,0,1.84,1.87,1.5,3.541
		c-0.225,0.991-0.792,1.897-1.87,2.351c1.332,0,3.173,2.152,3.456,4.588c1.559-1.501,2.692-3.739,3.173-5.977
		C35.704,110.294,34.4,106.075,29.614,106.075z"/>
	<path fill="#E6AF44" d="M80.23,117.007l0.564-3.087c-1.756,0-2.859,1.784-3.229,3.484c-0.312,1.558-0.028,3.087,0.963,3.087
		l-0.991,4.702h0.052c-0.693,2.825-2.131,3.909-3.189,3.909c-1.897,0-0.99-4.702-3.426-4.702c2.236-1.104,4.191-3.342,4.729-5.834
		c0.34-1.614-0.056-2.124-0.736-2.124c-1.189,0-3.285,1.472-4.162,1.529c0.226,0.17,0.198,0.822,0,1.671
		c-0.113,0.594-0.313,1.274-0.538,1.954c-0.681,1.7-2.493,2.577-3.739,2.577L69.954,108c-0.821,1.189-3.483,1.926-6.288,1.926
		c0.85,1.105,0.878,2.804,0.171,6.118l-1.929,9.089c-0.205,0.665-0.558,1.28-1.097,1.843c-0.622,0.651-1.358,1.19-2.153,1.558
		c-0.821,0.369-1.614,0.566-2.351,0.566c-1.188-0.057-1.954-0.538-2.265-1.444c-0.254-0.821-0.313-1.728-0.142-2.775
		c0.34,0.056,0.651,0.169,0.989,0.311c0.539,0.255,1.106,0.368,1.673,0.368c0.65,0,1.246-0.339,1.87-1.02
		c0.594-0.651,0.99-1.529,1.216-2.633c0.17-0.766,0.199-1.53,0.114-2.295c-0.114-0.765-0.397-1.388-0.822-1.869
		c-0.425-0.482-1.047-0.737-1.897-0.737c-1.33,0-2.578,0.425-3.739,1.275c-1.161,0.85-2.122,1.926-2.944,3.229
		c-0.793,1.331-1.358,2.69-1.642,4.078c-0.029,0.137-0.043,0.269-0.067,0.404c-0.202,0.342-0.449,0.67-0.75,0.984
		c-0.624,0.651-1.36,1.19-2.151,1.558c-0.822,0.369-1.615,0.566-2.352,0.566c-1.19-0.057-1.954-0.538-2.266-1.444
		c-0.256-0.821-0.311-1.728-0.142-2.775c0.339,0.056,0.651,0.169,0.992,0.311c0.537,0.255,1.104,0.368,1.669,0.368
		c0.653,0,1.248-0.339,1.87-1.02c0.594-0.651,0.991-1.529,1.218-2.633c0.171-0.766,0.198-1.53,0.114-2.295
		c-0.114-0.765-0.396-1.388-0.821-1.869c-0.425-0.482-1.049-0.737-1.898-0.737c-1.331,0-2.577,0.425-3.738,1.275
		c-1.161,0.85-2.125,1.926-2.946,3.229c-0.793,1.331-1.359,2.69-1.643,4.078c-0.283,1.332-0.312,2.578-0.028,3.767
		c0.256,1.19,0.823,2.152,1.729,2.918c0.878,0.765,2.181,1.132,3.881,1.132c2.01,0,3.822-0.737,5.381-2.238
		c0.714-0.674,1.309-1.488,1.817-2.409c0.03,0.199,0.056,0.401,0.103,0.597c0.254,1.19,0.82,2.152,1.728,2.918
		c0.878,0.765,2.181,1.132,3.88,1.132c2.011,0,3.824-0.737,5.381-2.238c0.475-0.45,0.892-0.973,1.276-1.532l-0.8,3.77h4.419
		l1.698-8.043c3.908,0,0.426,8.043,5.523,8.043c4.079,0,5.835-4.22,6.77-8.582h-0.022l1.122-4.277h5.947
		c-1.049,0.935-7.393,7.675-7.79,9.092c-0.114,0.538-0.085,1.755,0.087,1.755c1.867-1.841,2.688-2.294,4.162-2.294
		c0.453,0,0.624,0.51,0.424,1.332c-0.453,2.124-3,6.542-7.476,7.619c0.933,0.368,1.5,3.682,3.88,3.682
		c4.135,0,6.825-5.976,8.24-11.131c0.539-2.521-0.254-3.994-2.322-3.994c-0.792,0-1.897,0.284-3,0.652
		c2.151-2.493,6.796-5.607,7.279-7.817l0.678-3.257c-0.961,0.736-3.54,0.849-6.004,0.849L80.23,117.007z M55.43,120.717
		c0.709-1.189,1.246-1.784,1.672-1.784c0.198,0.028,0.254,0.227,0.171,0.595c-0.142,0.68-0.624,1.642-1.445,2.86
		c-0.623,0.907-1.247,1.586-1.813,2.011C54.297,123.096,54.778,121.878,55.43,120.717z M42.521,120.717
		c0.708-1.189,1.246-1.784,1.671-1.784c0.199,0.028,0.256,0.227,0.169,0.595c-0.142,0.68-0.622,1.642-1.444,2.86
		c-0.622,0.907-1.244,1.586-1.811,2.011C41.389,123.096,41.869,121.878,42.521,120.717z"/>
	<path fill="#E6AF44" d="M109.14,106.301h-0.508l0.339-1.529c-0.851,1.162-3.512,1.983-6.259,1.983l0.142,0.453
		c-6.117,1.87-9.234,6.401-10.084,10.479c-0.595,2.69-0.17,5.183,0.964,6.628c1.134-2.436,3.712-4.872,4.983-5.013
		c-0.878-0.283-1.472-2.011-1.047-3.937c0.425-2.011,1.929-4.277,5.325-5.438c-0.114,2.011-0.48,4.758-1.074,7.563
		c-1.334,6.287-3.826,12.943-7.195,12.943c0.086,0.566,0.027,1.246-0.114,1.926c-0.366,1.7-1.303,3.512-2.464,3.993
		c3.259,0,5.581-0.51,7.392-1.784c2.268,1.331,4.39,1.897,6.318,1.897c5.86,0,9.938-5.268,10.958-10.167
		c0.878-4.05-0.339-7.874-4.333-8.185c2.354-0.454,4.361-2.719,4.872-5.155C118.036,109.756,116.139,106.301,109.14,106.301z
		 M110.758,126.042c-0.709,3.313-3.26,6.769-6.034,6.769c-0.851,0-1.729-0.339-2.578-1.104c1.586-2.606,2.605-6.429,3.739-11.754
		h0.594C110.443,119.953,111.407,122.954,110.758,126.042z M112.229,113.126c-0.425,2.04-2.55,4.107-5.837,4.107l1.646-8.129h0.113
		C111.463,109.104,112.683,111.116,112.229,113.126z"/>
	<path fill="#E6AF44" d="M144.498,118.112c0.48,0.594,0.563,3.625,0.027,7.25c-0.653,2.719-1.614,3.738-2.664,3.738
		c-1.387,0-1.614-1.303-0.878-4.871l1.728-8.043c-0.85,1.189-3.511,1.926-6.259,1.926c0.795,1.104,0.905,2.748,0.17,6.118
		c-0.146,0.696-0.287,1.407-0.404,2.11c-0.104,0.359-0.204,0.652-0.294,0.864c-0.2,0.424-0.37,0.736-0.484,0.906
		c-0.48,0.651-1.02,0.991-1.586,0.991c-0.678,0-1.103-0.368-1.217-1.104c-0.142-0.737,0-1.983,0.37-3.767l1.697-8.043
		c-0.284,0.424-0.678,0.821-1.103,1.161c-0.453,0.368-1.106,0.538-1.897,0.538c-0.512,0-0.937-0.028-1.334-0.113
		c-0.366-0.085-0.736-0.17-1.075-0.283c-0.397-0.142-0.822-0.255-1.275-0.34c-0.48-0.085-1.02-0.142-1.7-0.142
		c-1.303,0-2.464,0.396-3.539,1.161c-1.047,0.765-1.925,1.756-2.605,2.974c-0.708,1.218-1.217,2.521-1.5,3.881
		c-0.283,1.388-0.342,2.718-0.142,3.994c0.197,1.274,0.678,2.322,1.473,3.143c0.764,0.822,1.869,1.247,3.286,1.247
		c1.047,0,1.953-0.368,2.748-1.076c0.764-0.708,1.413-1.558,1.866-2.549c0.059,1.076,0.314,1.954,0.795,2.605
		c0.479,0.679,1.33,1.02,2.547,1.02c1.105,0,1.983-0.255,2.691-0.737c0.709-0.481,1.275-1.104,1.701-1.926
		c0.121-0.22,0.214-0.464,0.321-0.696c0.159,1.958,1.006,3.359,3.293,3.359c1.417,0,2.464-0.454,3.287-1.189
		c-1.275,2.889-3.114,5.239-5.578,5.834c0.933,0.368,1.5,3.682,3.767,3.682c4.248,0,6.259-7.307,8.326-17.079l1.755-8.468
		C149.962,117.375,147.301,118.112,144.498,118.112z M128.331,124.569c-0.225,1.161-0.649,2.209-1.271,3.144
		c-0.599,0.935-1.334,1.388-2.181,1.388c-0.626,0-1.106-0.226-1.39-0.708c-0.283-0.453-0.453-1.047-0.453-1.784
		c-0.027-0.736,0.028-1.5,0.225-2.322c0.256-1.332,0.736-2.549,1.39-3.681c0.622-1.105,1.275-1.671,1.952-1.671
		c0.626,0,1.079,0.283,1.417,0.821c0.312,0.567,0.512,1.274,0.539,2.153C128.614,122.785,128.531,123.663,128.331,124.569z"/>
</g>
</svg>
