<svg xmlns="http://www.w3.org/2000/svg" viewBox="0 0 32 32" height="48" width="48"><title>social-rewards-heart-like-circle</title><g><rect x="30.47" y="12.19" width="1.53" height="7.62" fill="#c1c1c1"></rect><rect x="28.95" y="19.81" width="1.52" height="3.05" fill="#c1c1c1"></rect><rect x="28.95" y="9.14" width="1.52" height="3.05" fill="#c1c1c1"></rect><rect x="27.43" y="22.86" width="1.52" height="3.04" fill="#c1c1c1"></rect><rect x="27.43" y="6.09" width="1.52" height="3.05" fill="#c1c1c1"></rect><rect x="25.9" y="25.9" width="1.53" height="1.53" fill="#c1c1c1"></rect><rect x="25.9" y="4.57" width="1.53" height="1.52" fill="#c1c1c1"></rect><rect x="22.85" y="27.43" width="3.05" height="1.52" fill="#c1c1c1"></rect><path d="M24.38,10.67H22.85V9.14H18.28v1.53H16.76v1.52H15.23V10.67H13.71V9.14H9.14v1.53H7.62v1.52H6.09v4.57H7.62v1.53H9.14v1.52h1.52v1.52h1.53v1.53h1.52v1.52h1.52V25.9h1.53V24.38h1.52V22.86h1.53V21.33h1.52V19.81h1.52V18.29h1.53V16.76H25.9V12.19H24.38Zm-1.53,6.09H21.33V13.71H18.28V12.19h3.05v1.52h1.52Z" fill="#c1c1c1"></path><rect x="22.85" y="3.05" width="3.05" height="1.52" fill="#c1c1c1"></rect><rect x="19.81" y="28.95" width="3.04" height="1.53" fill="#c1c1c1"></rect><rect x="19.81" y="1.52" width="3.04" height="1.53" fill="#c1c1c1"></rect><rect x="12.19" y="30.48" width="7.62" height="1.52" fill="#c1c1c1"></rect><rect x="12.19" width="7.62" height="1.52" fill="#c1c1c1"></rect><rect x="9.14" y="28.95" width="3.05" height="1.53" fill="#c1c1c1"></rect><rect x="9.14" y="1.52" width="3.05" height="1.53" fill="#c1c1c1"></rect><rect x="6.09" y="27.43" width="3.05" height="1.52" fill="#c1c1c1"></rect><rect x="6.09" y="3.05" width="3.05" height="1.52" fill="#c1c1c1"></rect><rect x="4.57" y="25.9" width="1.52" height="1.53" fill="#c1c1c1"></rect><rect x="4.57" y="4.57" width="1.52" height="1.52" fill="#c1c1c1"></rect><rect x="3.04" y="22.86" width="1.53" height="3.04" fill="#c1c1c1"></rect><rect x="3.04" y="6.09" width="1.53" height="3.05" fill="#c1c1c1"></rect><rect x="1.52" y="19.81" width="1.52" height="3.05" fill="#c1c1c1"></rect><rect x="1.52" y="9.14" width="1.52" height="3.05" fill="#c1c1c1"></rect><rect y="12.19" width="1.52" height="7.62" fill="#c1c1c1"></rect></g></svg>