<svg xmlns="http://www.w3.org/2000/svg" viewBox="0 0 32 32" height="48" width="48"><title>interface-essential-information-circle-2</title><path d="M30.48,9.14H28.95V6.09H27.43V4.57H25.9V3.05H22.86V1.52H19.81V0H12.19V1.52H9.14V3.05H6.09V4.57H4.57V6.09H3.05V9.14H1.52v3.05H0v7.62H1.52v3.05H3.05V25.9H4.57v1.53H6.09v1.52H9.14v1.53h3.05V32h7.62V30.48h3.05V28.95H25.9V27.43h1.53V25.9h1.52V22.86h1.53V19.81H32V12.19H30.48ZM12.19,6.09h1.52V4.57h4.58V6.09h1.52v4.58H18.29v1.52H13.71V10.67H12.19ZM22.86,25.9H21.33v1.53H13.71V25.9H12.19V15.24h1.52V13.71h4.58v1.53h1.52v7.62h1.52v1.52h1.53Z" fill="#e6af45"></path></svg>