<svg xmlns="http://www.w3.org/2000/svg" viewBox="0 0 32 32" height="48" width="48"><title>map-navigation-pin-location-2</title><g><rect x="28.955" y="25.9" width="1.52" height="3.05" fill="#e6af45"></rect><rect x="25.905" y="24.38" width="3.05" height="1.52" fill="#e6af45"></rect><rect x="25.905" y="28.95" width="3.05" height="1.52" fill="#e6af45"></rect><rect x="22.855" y="22.85" width="3.05" height="1.53" fill="#e6af45"></rect><rect x="24.385" y="6.09" width="1.52" height="7.62" fill="#e6af45"></rect><rect x="6.095" y="30.47" width="19.81" height="1.53" fill="#e6af45"></rect><rect x="22.855" y="13.71" width="1.53" height="4.57" fill="#e6af45"></rect><rect x="22.855" y="3.04" width="1.53" height="3.05" fill="#e6af45"></rect><rect x="21.335" y="18.28" width="1.52" height="3.05" fill="#e6af45"></rect><rect x="19.815" y="21.33" width="1.52" height="3.05" fill="#e6af45"></rect><rect x="19.815" y="1.52" width="3.04" height="1.52" fill="#e6af45"></rect><rect x="18.285" y="24.38" width="1.53" height="1.52" fill="#e6af45"></rect><rect x="18.285" y="6.09" width="1.53" height="1.52" fill="#e6af45"></rect><rect x="16.765" y="25.9" width="1.52" height="1.52" fill="#e6af45"></rect><rect x="15.235" y="27.42" width="1.53" height="1.53" fill="#e6af45"></rect><rect x="13.715" y="25.9" width="1.52" height="1.52" fill="#e6af45"></rect><rect x="12.195" width="7.62" height="1.52" fill="#e6af45"></rect><rect x="12.195" y="24.38" width="1.52" height="1.52" fill="#e6af45"></rect><polygon points="12.195 13.71 13.715 13.71 13.715 15.23 18.285 15.23 18.285 13.71 19.815 13.71 19.815 12.19 21.335 12.19 21.335 7.61 19.815 7.61 19.815 10.66 18.285 10.66 18.285 7.61 16.765 7.61 16.765 6.09 18.285 6.09 18.285 4.57 13.715 4.57 13.715 6.09 12.195 6.09 12.195 7.61 10.665 7.61 10.665 12.19 12.195 12.19 12.195 13.71" fill="#e6af45"></polygon><rect x="10.665" y="21.33" width="1.53" height="3.05" fill="#e6af45"></rect><rect x="9.145" y="1.52" width="3.05" height="1.52" fill="#e6af45"></rect><rect x="9.145" y="18.28" width="1.52" height="3.05" fill="#e6af45"></rect><rect x="6.095" y="22.85" width="3.05" height="1.53" fill="#e6af45"></rect><rect x="7.615" y="13.71" width="1.53" height="4.57" fill="#e6af45"></rect><rect x="7.615" y="3.04" width="1.53" height="3.05" fill="#e6af45"></rect><rect x="6.095" y="6.09" width="1.52" height="7.62" fill="#e6af45"></rect><rect x="3.045" y="28.95" width="3.05" height="1.52" fill="#e6af45"></rect><rect x="3.045" y="24.38" width="3.05" height="1.52" fill="#e6af45"></rect><rect x="1.525" y="25.9" width="1.52" height="3.05" fill="#e6af45"></rect></g></svg>