<svg xmlns="http://www.w3.org/2000/svg" viewBox="0 0 32 32" height="48" width="48"><title>interface-essential-map</title><g><polygon points="30.47 27.425 28.95 27.425 28.95 28.955 21.33 28.955 21.33 22.855 19.81 22.855 19.81 28.955 15.24 28.955 15.24 27.425 13.71 27.425 13.71 28.955 3.05 28.955 3.05 27.425 1.52 27.425 1.52 28.955 0 28.955 0 30.475 32 30.475 32 28.955 30.47 28.955 30.47 27.425" fill="#e6af45"></polygon><rect x="27.43" y="24.385" width="1.52" height="3.04" fill="#e6af45"></rect><rect x="25.9" y="21.335" width="1.53" height="3.05" fill="#e6af45"></rect><polygon points="22.85 19.815 22.85 21.335 25.9 21.335 25.9 18.285 24.38 18.285 24.38 19.815 22.85 19.815" fill="#e6af45"></polygon><rect x="21.33" y="21.335" width="1.52" height="1.52" fill="#e6af45"></rect><rect x="10.66" y="25.905" width="3.05" height="1.52" fill="#e6af45"></rect><rect x="12.19" y="21.335" width="1.52" height="1.52" fill="#e6af45"></rect><rect x="10.66" y="22.855" width="1.53" height="1.53" fill="#e6af45"></rect><rect x="6.09" y="24.385" width="4.57" height="1.52" fill="#e6af45"></rect><path d="M15.24,18.285v1.53H13.71v1.52h1.53v3.05h1.52v-3.05h1.52v-1.52H16.76v-1.53h1.52v1.53h1.53v-1.53h4.57v-1.52H16.76V12.2h1.52v-1.53h1.53V9.145h1.52V4.575H19.81V3.045H18.28V1.525H13.71v1.52H12.19v1.53H10.66v4.57h1.53v1.52h1.52V12.2h1.53v4.57H7.62v1.52Zm0-13.71h3.04v3.05H16.76V6.1H15.24Z" fill="#e6af45"></path><rect x="6.09" y="18.285" width="1.53" height="3.05" fill="#e6af45"></rect><rect x="4.57" y="21.335" width="1.52" height="3.05" fill="#e6af45"></rect><rect x="3.05" y="24.385" width="1.52" height="3.04" fill="#e6af45"></rect></g></svg>