<svg xmlns="http://www.w3.org/2000/svg" viewBox="0 0 32 32" height="48" width="48"><title>interface-essential-signin-login</title><g><polygon points="22.855 9.583 22.855 11.103 21.325 11.103 21.325 12.633 19.805 12.633 19.805 14.153 18.285 14.153 18.285 17.203 19.805 17.203 19.805 18.723 21.325 18.723 21.325 20.253 22.855 20.253 22.855 21.773 24.375 21.773 24.375 17.203 30.475 17.203 30.475 14.153 24.375 14.153 24.375 9.583 22.855 9.583" fill="#e6af45"></polygon><rect x="21.325" y="24.823" width="1.53" height="3.05" fill="#e6af45"></rect><rect x="21.325" y="1.963" width="1.53" height="4.57" fill="#e6af45"></rect><polygon points="15.235 30.913 15.235 29.393 21.325 29.393 21.325 27.873 15.235 27.873 15.235 8.063 13.715 8.063 13.715 30.913 15.235 30.913" fill="#e6af45"></polygon><rect x="9.135" y="30.913" width="4.58" height="1.53" fill="#e6af45"></rect><rect x="10.665" y="17.203" width="1.52" height="3.05" fill="#e6af45"></rect><rect x="10.665" y="6.533" width="3.05" height="1.53" fill="#e6af45"></rect><rect x="6.095" y="29.393" width="3.04" height="1.52" fill="#e6af45"></rect><rect x="7.615" y="5.013" width="3.05" height="1.52" fill="#e6af45"></rect><rect x="3.045" y="27.873" width="3.05" height="1.52" fill="#e6af45"></rect><rect x="4.565" y="3.493" width="3.05" height="1.52" fill="#e6af45"></rect><polygon points="3.045 0.443 3.045 1.963 1.525 1.963 1.525 27.873 3.045 27.873 3.045 3.493 4.565 3.493 4.565 1.963 21.325 1.963 21.325 0.443 3.045 0.443" fill="#e6af45"></polygon></g></svg>