<svg xmlns="http://www.w3.org/2000/svg" viewBox="0 0 32 32" height="48" width="48"><title>interface-essential-signout-logout</title><g><polygon points="25.145 9.14 25.145 13.71 19.045 13.71 19.045 16.76 25.145 16.76 25.145 21.33 26.665 21.33 26.665 19.81 28.195 19.81 28.195 18.29 29.715 18.29 29.715 16.76 31.235 16.76 31.235 13.71 29.715 13.71 29.715 12.19 28.195 12.19 28.195 10.67 26.665 10.67 26.665 9.14 25.145 9.14" fill="#e6af45"></polygon><rect x="20.575" y="21.33" width="1.52" height="6.1" fill="#e6af45"></rect><rect x="20.575" y="1.52" width="1.52" height="7.62" fill="#e6af45"></rect><polygon points="14.475 30.48 14.475 28.95 20.575 28.95 20.575 27.43 14.475 27.43 14.475 7.62 12.955 7.62 12.955 30.48 14.475 30.48" fill="#e6af45"></polygon><rect x="8.385" y="30.48" width="4.57" height="1.52" fill="#e6af45"></rect><rect x="9.905" y="16.76" width="1.52" height="3.05" fill="#e6af45"></rect><rect x="9.905" y="6.1" width="3.05" height="1.52" fill="#e6af45"></rect><rect x="5.335" y="28.95" width="3.05" height="1.53" fill="#e6af45"></rect><rect x="6.855" y="4.57" width="3.05" height="1.53" fill="#e6af45"></rect><rect x="2.285" y="27.43" width="3.05" height="1.52" fill="#e6af45"></rect><rect x="3.815" y="3.05" width="3.04" height="1.52" fill="#e6af45"></rect><polygon points="2.285 0 2.285 1.52 0.765 1.52 0.765 27.43 2.285 27.43 2.285 3.05 3.815 3.05 3.815 1.52 20.575 1.52 20.575 0 2.285 0" fill="#e6af45"></polygon></g></svg>