<svg xmlns="http://www.w3.org/2000/svg" viewBox="0 0 32 32" height="48" width="48"><title>interface-essential-view-eye</title><g><rect x="29.71" y="14.475" width="1.53" height="3.05" fill="#e6af45"></rect><rect x="28.19" y="17.525" width="1.52" height="1.52" fill="#e6af45"></rect><rect x="28.19" y="12.955" width="1.52" height="1.52" fill="#e6af45"></rect><rect x="26.67" y="19.045" width="1.52" height="1.53" fill="#e6af45"></rect><rect x="26.67" y="11.425" width="1.52" height="1.53" fill="#e6af45"></rect><rect x="23.62" y="20.575" width="3.05" height="1.52" fill="#e6af45"></rect><rect x="23.62" y="9.905" width="3.05" height="1.52" fill="#e6af45"></rect><rect x="20.57" y="22.095" width="3.05" height="1.52" fill="#e6af45"></rect><rect x="20.57" y="12.955" width="1.52" height="6.09" fill="#e6af45"></rect><rect x="20.57" y="8.385" width="3.05" height="1.52" fill="#e6af45"></rect><rect x="19.05" y="19.045" width="1.52" height="1.53" fill="#e6af45"></rect><rect x="19.05" y="11.425" width="1.52" height="1.53" fill="#e6af45"></rect><rect x="11.43" y="23.615" width="9.14" height="1.53" fill="#e6af45"></rect><rect x="12.95" y="20.575" width="6.1" height="1.52" fill="#e6af45"></rect><polygon points="17.52 12.955 14.48 12.955 14.48 14.475 12.95 14.475 12.95 17.525 14.48 17.525 14.48 19.045 17.52 19.045 17.52 17.525 19.05 17.525 19.05 14.475 17.52 14.475 17.52 12.955" fill="#e6af45"></polygon><rect x="12.95" y="9.905" width="6.1" height="1.52" fill="#e6af45"></rect><rect x="11.43" y="6.855" width="9.14" height="1.53" fill="#e6af45"></rect><rect x="11.43" y="19.045" width="1.52" height="1.53" fill="#e6af45"></rect><rect x="11.43" y="11.425" width="1.52" height="1.53" fill="#e6af45"></rect><rect x="8.38" y="22.095" width="3.05" height="1.52" fill="#e6af45"></rect><rect x="9.9" y="12.955" width="1.53" height="6.09" fill="#e6af45"></rect><rect x="8.38" y="8.385" width="3.05" height="1.52" fill="#e6af45"></rect><rect x="5.33" y="20.575" width="3.05" height="1.52" fill="#e6af45"></rect><rect x="5.33" y="9.905" width="3.05" height="1.52" fill="#e6af45"></rect><rect x="3.81" y="19.045" width="1.52" height="1.53" fill="#e6af45"></rect><rect x="3.81" y="11.425" width="1.52" height="1.53" fill="#e6af45"></rect><rect x="2.29" y="17.525" width="1.52" height="1.52" fill="#e6af45"></rect><rect x="2.29" y="12.955" width="1.52" height="1.52" fill="#e6af45"></rect><rect x="0.76" y="14.475" width="1.53" height="3.05" fill="#e6af45"></rect></g></svg>