<?xml version="1.0" encoding="utf-8"?>
<!-- Generator: Adobe Illustrator 16.0.0, SVG Export Plug-In . SVG Version: 6.00 Build 0)  -->
<svg version="1.2" baseProfile="tiny" id="Calque_1"
	 xmlns="http://www.w3.org/2000/svg" xmlns:xlink="http://www.w3.org/1999/xlink" x="0px" y="0px" width="527.4px" height="425.4px"
	 viewBox="0 0 527.4 425.4" xml:space="preserve">
<g>
	<path fill="#E6AF44" d="M121.063,288.813l17.263,39.881l17.326-39.881l9.639,50.214h-5.418l-6.111-32.132h-0.126l-15.31,34.085
		l-15.247-34.085h-0.126l-6.111,32.132h-5.418L121.063,288.813z"/>
	<path fill="#E6AF44" d="M186.016,325.545l-5.733,13.482h-5.796l21.925-49.772l21.358,49.772h-5.859l-5.607-13.482H186.016z
		 M196.286,301.604l-8.127,19.026h16.066L196.286,301.604z"/>
	<path fill="#E6AF44" d="M230.493,291.522h8.947c7.119,0,12.916,0.945,18.523,5.733c5.418,4.662,7.875,11.025,7.875,18.082
		c0,6.931-2.52,13.042-7.75,17.704c-5.67,5.04-11.341,5.985-18.775,5.985h-8.821V291.522z M239.628,334.113
		c5.796,0,10.647-0.819,14.995-4.914c3.906-3.654,5.922-8.632,5.922-13.924c0-5.419-2.079-10.648-6.174-14.239
		c-4.347-3.843-9.135-4.6-14.743-4.6h-3.843v37.677H239.628z"/>
	<path fill="#E6AF44" d="M280.766,291.522H305.4v4.914h-19.342v14.113h18.775v4.914h-18.775v18.649H305.4v4.914h-24.635V291.522z"/>
	<path fill="#E6AF44" d="M354.35,339.027h-5.293v-47.505h5.293V339.027z"/>
	<path fill="#E6AF44" d="M371.863,289.507l37.047,38.81v-36.794h5.291v49.647l-37.045-38.748v36.605h-5.293V289.507z"/>
	<path fill="#E6AF44" d="M35.037,409.713h13.105v4.914H29.745v-47.505h5.292V409.713z"/>
	<path fill="#E6AF44" d="M66.096,395.411c0,3.528-0.126,7.561,2.079,10.584c2.079,2.898,6.111,4.536,9.577,4.536
		c3.402,0,7.119-1.574,9.324-4.221c2.521-3.024,2.332-7.183,2.332-10.899v-28.289H94.7v29.738c0,5.166-0.378,9.261-4.158,13.167
		c-3.276,3.528-8.001,5.419-12.79,5.419c-4.473,0-9.073-1.701-12.286-4.852c-4.158-3.969-4.663-8.316-4.663-13.734v-29.738h5.292
		V395.411z"/>
	<path fill="#E6AF44" d="M108.873,367.122h6.048l9.703,17.894l9.703-17.894h6.048l-12.853,22.934l14.05,24.571h-6.048
		l-10.899-19.531l-10.9,19.531h-6.048l14.05-24.571L108.873,367.122z"/>
	<path fill="#E6AF44" d="M154.736,367.122h24.635v4.914h-19.342v14.113h18.775v4.914h-18.775v18.649h19.342v4.914h-24.635V367.122z"
		/>
	<path fill="#E6AF44" d="M202.112,364.413l17.263,39.881l17.326-39.881l9.639,50.214h-5.418l-6.111-32.132h-0.126l-15.31,34.085
		l-15.247-34.085h-0.126l-6.111,32.132h-5.418L202.112,364.413z"/>
	<path fill="#E6AF44" d="M259.945,367.122h7.813c8.632,0,15.877,3.15,15.877,12.853c0,3.844-1.449,7.12-4.662,9.262
		c5.67,1.387,9.01,6.489,9.01,12.16c0,9.45-7.623,13.23-17.012,13.23h-11.025V367.122z M265.238,388.039h2.016
		c5.985,0,11.088-0.692,11.088-8.064c0-7.182-4.535-7.938-11.025-7.938h-2.078V388.039z M265.238,409.713h5.292
		c5.923,0,12.159-1.449,12.159-8.694c0-7.372-7.057-8.442-12.853-8.442h-4.599V409.713z"/>
	<path fill="#E6AF44" d="M350.416,390.938c0,13.672-11.215,24.509-24.76,24.509c-13.547,0-24.76-10.837-24.76-24.509
		c0-13.608,11.213-24.634,24.76-24.634C339.201,366.304,350.416,377.329,350.416,390.938z M306.188,390.875
		c0,10.71,8.695,19.656,19.469,19.656s19.469-8.946,19.469-19.656c0-10.774-8.57-19.657-19.469-19.657
		C314.756,371.218,306.188,380.101,306.188,390.875z"/>
	<path fill="#E6AF44" d="M370.32,395.411c0,3.528-0.125,7.561,2.08,10.584c2.078,2.898,6.111,4.536,9.576,4.536
		c3.402,0,7.119-1.574,9.324-4.221c2.521-3.024,2.332-7.183,2.332-10.899v-28.289h5.293v29.738c0,5.166-0.379,9.261-4.158,13.167
		c-3.277,3.528-8.002,5.419-12.791,5.419c-4.473,0-9.072-1.701-12.285-4.852c-4.158-3.969-4.662-8.316-4.662-13.734v-29.738h5.291
		V395.411z"/>
	<path fill="#E6AF44" d="M421.162,414.627h-5.291v-47.505h6.867c9.01,0,17.389,2.395,17.389,13.104
		c0,7.309-4.6,12.476-11.908,13.105l15.121,21.295h-6.488l-14.365-20.854h-1.324V414.627z M421.162,389.11h1.639
		c5.986,0,12.033-1.134,12.033-8.505c0-7.813-5.732-8.569-12.096-8.569h-1.576V389.11z"/>
	<path fill="#E6AF44" d="M501.742,390.749c0.125,6.426-0.568,11.718-4.916,16.759c-4.346,5.04-10.961,7.938-17.576,7.938
		c-13.357,0-24.447-11.089-24.447-24.445c0-13.609,11.09-24.697,24.762-24.697c8.316,0,15.057,3.717,20.098,10.27l-3.844,3.591
		c-3.969-5.607-9.324-8.946-16.316-8.946c-10.838,0-19.406,9.135-19.406,19.846c0,5.04,2.016,9.829,5.545,13.42
		c3.465,3.465,8.506,6.048,13.482,6.048c8.254,0,16.947-6.048,16.947-14.868h-14.111v-4.914H501.742z"/>
</g>
<g>
	<path fill="none" stroke="#E6AF44" stroke-width="11" d="M171.202,249.364c9.32-13.72,14.777-30.277,14.777-48.114
		c0-33.902-19.677-63.203-48.229-77.12c-9.32,13.721-14.771,30.283-14.771,48.12C122.979,206.148,142.654,235.445,171.202,249.364z
		 M137.384,123.945c0.124,0.06,0.244,0.125,0.368,0.185c15.319-22.553,41.101-37.418,70.372-37.622h0.735
		c21.522,0.154,41.147,8.247,56.123,21.483 M137.384,123.945c-11.241-5.412-23.842-8.445-37.152-8.445
		c-47.358,0-85.75,38.392-85.75,85.75c0,3.998,0.273,7.931,0.803,11.783c0,0,0.838,7.871,11.358,42.03l16.185,60.164l4.655,17.272"
		/>
	<path fill="none" stroke="#E6AF44" stroke-width="11" d="M406.958,172.25c0-17.837-5.45-34.399-14.771-48.12
		c-28.553,13.917-48.229,43.218-48.229,77.12c0,17.837,5.457,34.395,14.777,48.114C387.283,235.445,406.958,206.148,406.958,172.25z
		 M264.956,107.991c14.976-13.236,34.601-21.329,56.123-21.483h0.734c29.271,0.204,55.054,15.069,70.373,37.622
		c0.123-0.06,0.244-0.125,0.367-0.185 M482.455,332.5l4.655-17.272l16.185-60.164c10.52-34.159,11.357-42.03,11.357-42.03
		c0.529-3.852,0.803-7.786,0.803-11.783c0-47.358-38.391-85.75-85.75-85.75c-13.311,0-25.91,3.033-37.152,8.445"/>
	<circle fill="none" stroke="#E6AF44" stroke-width="11" cx="264.982" cy="40.5" r="28.5"/>
	<path fill="none" stroke="#E6AF44" stroke-width="11" d="M264.982,107.991c-17.777,15.711-29,38.668-29,64.259
		s11.223,48.547,29,64.259c17.777-15.712,29-38.668,29-64.259S282.759,123.703,264.982,107.991"/>
</g>
</svg>
