<svg xmlns="http://www.w3.org/2000/svg" fill="none" viewBox="0 0 24 24" height="48" width="48"><path fill="#e6af45" d="M24 2.28751H22.86V21.7125H24V2.28751Z"></path><path fill="#e6af45" d="M22.86 21.7125H21.7125V22.86H22.86V21.7125Z"></path><path fill="#e6af45" d="M22.86 1.14001H21.7125V2.28751H22.86V1.14001Z"></path><path fill="#e6af45" d="M21.7125 22.86H2.28751V24H21.7125V22.86Z"></path><path fill="#e6af45" d="M20.5725 18.285H19.4325V19.425H18.285V20.5725H19.4325V21.7125H20.5725V20.5725H21.7125V19.425H20.5725V18.285Z"></path><path fill="#e6af45" d="M20.5725 2.28751H19.4325V3.42751H18.285V4.56751H19.4325V5.71501H20.5725V4.56751H21.7125V3.42751H20.5725V2.28751Z"></path><path fill="#e6af45" d="M16.005 4.56749H14.8575V3.42749H9.1425V4.56749H8.0025V5.71499H6.8625V9.14249H9.1425V6.85499H10.29V5.71499H12.57V6.85499H13.7175V9.14249H12.57V10.2825H11.43V11.43H10.29V13.71H13.7175V12.57H14.8575V11.43H16.005V10.2825H17.145V5.71499H16.005V4.56749Z"></path><path fill="#e6af45" d="M13.7175 14.8575H10.29V15.9975H9.1425V19.425H10.29V20.5725H13.7175V19.425H14.8575V15.9975H13.7175V14.8575Z"></path><path fill="#e6af45" d="M4.57501 18.285H3.42751V19.425H2.28751V20.5725H3.42751V21.7125H4.57501V20.5725H5.71501V19.425H4.57501V18.285Z"></path><path fill="#e6af45" d="M4.57501 2.28751H3.42751V3.42751H2.28751V4.56751H3.42751V5.71501H4.57501V4.56751H5.71501V3.42751H4.57501V2.28751Z"></path><path fill="#e6af45" d="M21.7125 0H2.28751V1.14H21.7125V0Z"></path><path fill="#e6af45" d="M2.28751 21.7125H1.14751V22.86H2.28751V21.7125Z"></path><path fill="#e6af45" d="M2.28751 1.14001H1.14751V2.28751H2.28751V1.14001Z"></path><path fill="#e6af45" d="M1.1475 2.28751H0V21.7125H1.1475V2.28751Z"></path></svg>