<svg xmlns="http://www.w3.org/2000/svg" viewBox="0 0 32 32" height="48" width="48"><title>interface-essential-profile-male</title><g><rect x="30.47" y="12.19" width="1.53" height="7.62" fill="#000000"></rect><rect x="28.95" y="19.81" width="1.52" height="3.05" fill="#000000"></rect><rect x="28.95" y="9.14" width="1.52" height="3.05" fill="#000000"></rect><rect x="27.43" y="22.86" width="1.52" height="3.04" fill="#000000"></rect><rect x="27.43" y="6.1" width="1.52" height="3.04" fill="#000000"></rect><rect x="25.9" y="25.9" width="1.53" height="1.53" fill="#000000"></rect><rect x="25.9" y="4.57" width="1.53" height="1.53" fill="#000000"></rect><rect x="22.85" y="27.43" width="3.05" height="1.52" fill="#000000"></rect><rect x="22.85" y="3.05" width="3.05" height="1.52" fill="#000000"></rect><rect x="21.33" y="21.33" width="1.52" height="1.53" fill="#000000"></rect><polygon points="9.14 15.24 10.66 15.24 10.66 13.71 21.33 13.71 21.33 15.24 22.85 15.24 22.85 21.33 24.38 21.33 24.38 9.14 22.85 9.14 22.85 7.62 21.33 7.62 21.33 6.1 10.66 6.1 10.66 7.62 9.14 7.62 9.14 9.14 7.62 9.14 7.62 21.33 9.14 21.33 9.14 15.24" fill="#000000"></polygon><rect x="19.81" y="28.95" width="3.04" height="1.53" fill="#000000"></rect><rect x="19.81" y="22.86" width="1.52" height="1.52" fill="#000000"></rect><rect x="19.81" y="16.76" width="1.52" height="3.05" fill="#000000"></rect><rect x="19.81" y="1.52" width="3.04" height="1.53" fill="#000000"></rect><rect x="12.19" y="30.48" width="7.62" height="1.52" fill="#000000"></rect><rect x="12.19" y="24.38" width="7.62" height="1.52" fill="#000000"></rect><rect x="13.71" y="21.33" width="4.57" height="1.53" fill="#000000"></rect><rect x="12.19" width="7.62" height="1.52" fill="#000000"></rect><rect x="9.14" y="28.95" width="3.05" height="1.53" fill="#000000"></rect><rect x="10.66" y="22.86" width="1.53" height="1.52" fill="#000000"></rect><rect x="10.66" y="16.76" width="1.53" height="3.05" fill="#000000"></rect><rect x="9.14" y="1.52" width="3.05" height="1.53" fill="#000000"></rect><rect x="9.14" y="21.33" width="1.52" height="1.53" fill="#000000"></rect><rect x="6.09" y="27.43" width="3.05" height="1.52" fill="#000000"></rect><rect x="6.09" y="3.05" width="3.05" height="1.52" fill="#000000"></rect><rect x="4.57" y="25.9" width="1.52" height="1.53" fill="#000000"></rect><rect x="4.57" y="4.57" width="1.52" height="1.53" fill="#000000"></rect><rect x="3.05" y="22.86" width="1.52" height="3.04" fill="#000000"></rect><rect x="3.05" y="6.1" width="1.52" height="3.04" fill="#000000"></rect><rect x="1.52" y="19.81" width="1.53" height="3.05" fill="#000000"></rect><rect x="1.52" y="9.14" width="1.53" height="3.05" fill="#000000"></rect><rect y="12.19" width="1.52" height="7.62" fill="#000000"></rect></g></svg>