<svg xmlns="http://www.w3.org/2000/svg" viewBox="0 0 32 32" height="48" width="48"><title>interface-essential-notification-alert</title><g><rect x="30.47" y="25.9" width="1.53" height="3.05" fill="#e6af45"></rect><rect x="30.47" y="3.05" width="1.53" height="3.05" fill="#e6af45"></rect><rect x="28.95" y="28.95" width="1.52" height="1.53" fill="#e6af45"></rect><rect x="28.95" y="1.52" width="1.52" height="1.53" fill="#e6af45"></rect><rect x="27.43" y="25.9" width="1.52" height="1.53" fill="#e6af45"></rect><rect x="27.43" y="19.81" width="1.52" height="3.05" fill="#e6af45"></rect><rect x="27.43" y="4.57" width="1.52" height="1.53" fill="#e6af45"></rect><rect x="25.9" width="3.05" height="1.52" fill="#e6af45"></rect><rect x="25.9" y="30.48" width="3.05" height="1.52" fill="#e6af45"></rect><rect x="25.9" y="27.43" width="1.53" height="1.52" fill="#e6af45"></rect><rect x="25.9" y="22.86" width="1.53" height="1.52" fill="#e6af45"></rect><rect x="25.9" y="18.29" width="1.53" height="1.52" fill="#e6af45"></rect><rect x="25.9" y="3.05" width="1.53" height="1.52" fill="#e6af45"></rect><rect x="22.85" y="24.38" width="3.05" height="1.52" fill="#e6af45"></rect><rect x="24.38" y="10.67" width="1.52" height="7.62" fill="#e6af45"></rect><rect x="22.85" y="21.33" width="1.53" height="1.53" fill="#e6af45"></rect><rect x="22.85" y="7.62" width="1.53" height="3.05" fill="#e6af45"></rect><polygon points="9.14 21.33 12.19 21.33 12.19 22.86 13.71 22.86 13.71 24.38 18.28 24.38 18.28 22.86 19.81 22.86 19.81 21.33 22.85 21.33 22.85 19.81 9.14 19.81 9.14 21.33" fill="#e6af45"></polygon><rect x="21.33" y="6.1" width="1.52" height="1.52" fill="#e6af45"></rect><rect x="9.14" y="25.9" width="13.71" height="1.53" fill="#e6af45"></rect><rect x="18.28" y="4.57" width="3.05" height="1.53" fill="#e6af45"></rect><rect x="13.71" y="3.05" width="4.57" height="1.52" fill="#e6af45"></rect><rect x="10.66" y="4.57" width="3.05" height="1.53" fill="#e6af45"></rect><rect x="9.14" y="6.1" width="1.52" height="1.52" fill="#e6af45"></rect><rect x="6.09" y="24.38" width="3.05" height="1.52" fill="#e6af45"></rect><rect x="7.62" y="21.33" width="1.52" height="1.53" fill="#e6af45"></rect><rect x="7.62" y="7.62" width="1.52" height="3.05" fill="#e6af45"></rect><rect x="6.09" y="10.67" width="1.53" height="7.62" fill="#e6af45"></rect><rect x="4.57" y="27.43" width="1.52" height="1.52" fill="#e6af45"></rect><rect x="4.57" y="22.86" width="1.52" height="1.52" fill="#e6af45"></rect><rect x="4.57" y="18.29" width="1.52" height="1.52" fill="#e6af45"></rect><rect x="4.57" y="3.05" width="1.52" height="1.52" fill="#e6af45"></rect><rect x="3.05" width="3.04" height="1.52" fill="#e6af45"></rect><rect x="3.05" y="30.48" width="3.04" height="1.52" fill="#e6af45"></rect><rect x="3.05" y="25.9" width="1.52" height="1.53" fill="#e6af45"></rect><rect x="3.05" y="19.81" width="1.52" height="3.05" fill="#e6af45"></rect><rect x="3.05" y="4.57" width="1.52" height="1.53" fill="#e6af45"></rect><rect x="1.52" y="28.95" width="1.53" height="1.53" fill="#e6af45"></rect><rect x="1.52" y="1.52" width="1.53" height="1.53" fill="#e6af45"></rect><rect y="25.9" width="1.52" height="3.05" fill="#e6af45"></rect><rect y="3.05" width="1.52" height="3.05" fill="#e6af45"></rect></g></svg>