<svg xmlns="http://www.w3.org/2000/svg" viewBox="0 0 32 32" height="48" width="48"><title>travel-wayfinding-beach-coconut-tree</title><g><rect x="25.91" y="22.86" width="6.09" height="1.52" fill="#e6af45"></rect><rect x="27.43" y="13.71" width="1.52" height="3.05" fill="#e6af45"></rect><polygon points="27.43 7.62 27.43 9.14 30.48 9.14 30.48 6.09 28.95 6.09 28.95 7.62 27.43 7.62" fill="#e6af45"></polygon><rect x="27.43" y="4.57" width="1.52" height="1.52" fill="#e6af45"></rect><rect x="25.91" y="16.76" width="1.52" height="1.52" fill="#e6af45"></rect><rect x="25.91" y="12.19" width="1.52" height="1.52" fill="#e6af45"></rect><rect x="18.29" y="6.09" width="9.14" height="1.53" fill="#e6af45"></rect><rect x="25.91" y="3.05" width="1.52" height="1.52" fill="#e6af45"></rect><rect x="24.38" y="24.38" width="1.53" height="1.52" fill="#e6af45"></rect><rect x="24.38" y="15.24" width="1.53" height="1.52" fill="#e6af45"></rect><rect x="24.38" y="10.67" width="1.53" height="1.52" fill="#e6af45"></rect><rect x="21.34" y="13.71" width="3.04" height="1.53" fill="#e6af45"></rect><path d="M22.86,19.81H21.34V16.76H19.81V15.24H18.29V13.71H16.76V12.19H12.19v3.05h1.53v3.04h1.52v3.05h1.52v7.62H15.24v1.53H25.91V28.95H24.38V25.9H22.86Zm-3.05,9.14H18.29V25.9h1.52Zm0-6.09H18.29V19.81H16.76V16.76H15.24V15.24h1.52v1.52h1.53v3.05h1.52Z" fill="#e6af45"></path><rect x="18.29" y="12.19" width="3.05" height="1.52" fill="#e6af45"></rect><rect x="16.76" y="1.52" width="9.15" height="1.53" fill="#e6af45"></rect><polygon points="16.76 10.67 24.38 10.67 24.38 9.14 18.29 9.14 18.29 7.62 16.76 7.62 16.76 10.67" fill="#e6af45"></polygon><rect x="15.24" y="3.05" width="1.52" height="1.52" fill="#e6af45"></rect><rect x="9.14" y="24.38" width="6.1" height="1.52" fill="#e6af45"></rect><rect x="13.72" y="4.57" width="1.52" height="1.52" fill="#e6af45"></rect><rect x="12.19" y="6.09" width="1.53" height="1.53" fill="#e6af45"></rect><rect x="10.67" y="15.24" width="1.52" height="4.57" fill="#e6af45"></rect><rect x="10.67" y="4.57" width="1.52" height="1.52" fill="#e6af45"></rect><rect x="9.14" y="19.81" width="1.53" height="1.52" fill="#e6af45"></rect><polygon points="9.14 15.24 10.67 15.24 10.67 12.19 7.62 12.19 7.62 13.71 9.14 13.71 9.14 15.24" fill="#e6af45"></polygon><rect x="7.62" y="25.9" width="1.52" height="1.53" fill="#e6af45"></rect><rect x="7.62" y="21.33" width="1.52" height="1.53" fill="#e6af45"></rect><rect x="7.62" y="15.24" width="1.52" height="1.52" fill="#e6af45"></rect><polygon points="4.57 9.14 4.57 10.67 10.67 10.67 10.67 7.62 9.14 7.62 9.14 9.14 4.57 9.14" fill="#e6af45"></polygon><rect x="6.1" y="16.76" width="1.52" height="4.57" fill="#e6af45"></rect><rect x="6.1" y="13.71" width="1.52" height="1.53" fill="#e6af45"></rect><rect x="4.57" y="6.09" width="4.57" height="1.53" fill="#e6af45"></rect><rect x="1.53" y="27.43" width="6.09" height="1.52" fill="#e6af45"></rect><rect x="4.57" y="15.24" width="1.53" height="1.52" fill="#e6af45"></rect><rect x="3.05" y="3.05" width="7.62" height="1.52" fill="#e6af45"></rect><rect x="3.05" y="16.76" width="1.52" height="3.05" fill="#e6af45"></rect><rect x="3.05" y="10.67" width="1.52" height="1.52" fill="#e6af45"></rect><rect x="3.05" y="7.62" width="1.52" height="1.52" fill="#e6af45"></rect><rect x="1.53" y="19.81" width="1.52" height="1.52" fill="#e6af45"></rect><rect x="1.53" y="12.19" width="1.52" height="1.52" fill="#e6af45"></rect><rect x="1.53" y="9.14" width="1.52" height="1.53" fill="#e6af45"></rect><rect x="1.53" y="4.57" width="1.52" height="1.52" fill="#e6af45"></rect><rect y="28.95" width="1.53" height="1.53" fill="#e6af45"></rect><rect y="13.71" width="1.53" height="6.1" fill="#e6af45"></rect><rect y="6.09" width="1.53" height="3.05" fill="#e6af45"></rect></g></svg>