<svg xmlns="http://www.w3.org/2000/svg" viewBox="0 0 32 32" height="48" width="48"><title>entertainment-events-hobbies-popcorn</title><g><rect x="28.945" y="7.62" width="1.53" height="4.57" fill="#e6af45"></rect><rect x="27.425" y="12.19" width="1.52" height="1.52" fill="#e6af45"></rect><rect x="24.375" y="6.1" width="4.57" height="1.52" fill="#e6af45"></rect><polygon points="22.855 13.71 22.855 15.24 24.375 15.24 24.375 24.38 22.855 24.38 22.855 30.48 21.325 30.48 21.325 16.76 22.855 16.76 22.855 15.24 16.755 15.24 16.755 16.76 18.285 16.76 18.285 30.48 15.235 30.48 15.235 15.24 13.715 15.24 13.715 13.71 10.665 13.71 10.665 15.24 12.185 15.24 12.185 30.48 10.665 30.48 10.665 24.38 9.135 24.38 9.135 16.76 10.665 16.76 10.665 15.24 7.615 15.24 7.615 12.19 4.565 12.19 4.565 13.71 6.095 13.71 6.095 24.38 7.615 24.38 7.615 30.48 9.135 30.48 9.135 32 24.375 32 24.375 30.48 25.905 30.48 25.905 24.38 27.425 24.38 27.425 13.71 22.855 13.71" fill="#e6af45"></polygon><rect x="24.375" y="10.67" width="1.53" height="1.52" fill="#e6af45"></rect><rect x="22.855" y="7.62" width="1.52" height="1.52" fill="#e6af45"></rect><rect x="21.325" y="4.57" width="1.53" height="3.05" fill="#e6af45"></rect><rect x="19.805" y="9.14" width="1.52" height="1.53" fill="#e6af45"></rect><rect x="19.805" y="3.05" width="1.52" height="1.52" fill="#e6af45"></rect><rect x="16.755" y="1.52" width="3.05" height="1.53" fill="#e6af45"></rect><rect x="16.755" y="10.67" width="3.05" height="1.52" fill="#e6af45"></rect><rect x="15.235" y="13.71" width="1.52" height="1.53" fill="#e6af45"></rect><rect x="15.235" y="9.14" width="1.52" height="1.53" fill="#e6af45"></rect><rect x="15.235" y="3.05" width="1.52" height="1.52" fill="#e6af45"></rect><rect x="13.715" y="1.52" width="1.52" height="1.53" fill="#e6af45"></rect><rect x="10.665" y="6.1" width="1.52" height="1.52" fill="#e6af45"></rect><rect x="9.135" width="4.58" height="1.52" fill="#e6af45"></rect><rect x="9.135" y="10.67" width="1.53" height="1.52" fill="#e6af45"></rect><rect x="7.615" y="4.57" width="3.05" height="1.53" fill="#e6af45"></rect><rect x="6.095" y="1.52" width="3.04" height="1.53" fill="#e6af45"></rect><rect x="6.095" y="6.1" width="1.52" height="1.52" fill="#e6af45"></rect><rect x="3.045" y="3.05" width="3.05" height="1.52" fill="#e6af45"></rect><rect x="3.045" y="9.14" width="1.52" height="3.05" fill="#e6af45"></rect><rect x="1.525" y="4.57" width="1.52" height="4.57" fill="#e6af45"></rect></g></svg>