<svg xmlns="http://www.w3.org/2000/svg" fill="none" viewBox="0 0 24 24" height="48" width="48"><path fill="#e6af45" d="M24 6.85501H21.7125V8.00251H24V6.85501Z"></path><path fill="#e6af45" d="M24 15.9975H21.7125V17.145H24V15.9975Z"></path><path fill="#e6af45" d="M24 11.43H21.7125V12.57H24V11.43Z"></path><path fill="#e6af45" d="M21.7125 20.5725H20.5725V21.7125H21.7125V20.5725Z"></path><path fill="#e6af45" d="M21.7125 2.28751H20.5725V3.42751H21.7125V2.28751Z"></path><path fill="#e6af45" d="M20.5725 19.425H19.4325V20.5725H20.5725V19.425Z"></path><path fill="#e6af45" d="M20.5725 9.14249H19.4325V14.8575H20.5725V9.14249Z"></path><path fill="#e6af45" d="M20.5725 3.42749H19.4325V4.56749H20.5725V3.42749Z"></path><path fill="#e6af45" d="M19.4325 14.8575H18.285V17.145H19.4325V14.8575Z"></path><path fill="#e6af45" d="M19.4325 6.85501H18.285V9.14251H19.4325V6.85501Z"></path><path fill="#e6af45" d="M18.285 5.715H17.145V6.855H18.285V5.715Z"></path><path fill="#e6af45" d="M17.145 21.7125H16.005V24H17.145V21.7125Z"></path><path fill="#e6af45" d="M16.005 18.285H14.8575V19.425H17.145V18.285H18.285V17.145H16.005V18.285Z"></path><path fill="#e6af45" d="M17.145 0H16.005V2.2875H17.145V0Z"></path><path fill="#e6af45" d="M16.005 15.9975H14.8575V17.145H16.005V15.9975Z"></path><path fill="#e6af45" d="M17.145 4.5675H14.8575V5.715H17.145V4.5675Z"></path><path fill="#e6af45" d="M14.8575 19.425H9.1425V20.5725H14.8575V19.425Z"></path><path fill="#e6af45" d="M12.57 21.7125H11.43V24H12.57V21.7125Z"></path><path fill="#e6af45" d="M12.57 0H11.43V2.2875H12.57V0Z"></path><path fill="#e6af45" d="M14.8575 14.8575H9.1425V15.9975H14.8575V14.8575Z"></path><path fill="#e6af45" d="M14.8575 3.42749H9.1425V4.56749H14.8575V3.42749Z"></path><path fill="#e6af45" d="M8.0025 18.285V17.145H5.715V18.285H6.8625V19.425H9.1425V18.285H8.0025Z"></path><path fill="#e6af45" d="M9.1425 15.9975H8.0025V17.145H9.1425V15.9975Z"></path><path fill="#e6af45" d="M9.1425 10.2825H10.29V9.14251H13.7175V10.2825H14.8575V14.8575H16.005V8.00251H14.8575V6.85501H9.1425V8.00251H8.0025V14.8575H9.1425V10.2825Z"></path><path fill="#e6af45" d="M9.1425 4.5675H6.8625V5.715H9.1425V4.5675Z"></path><path fill="#e6af45" d="M8.0025 21.7125H6.8625V24H8.0025V21.7125Z"></path><path fill="#e6af45" d="M8.0025 0H6.8625V2.2875H8.0025V0Z"></path><path fill="#e6af45" d="M6.8625 5.715H5.715V6.855H6.8625V5.715Z"></path><path fill="#e6af45" d="M5.715 14.8575H4.575V17.145H5.715V14.8575Z"></path><path fill="#e6af45" d="M5.715 6.85501H4.575V9.14251H5.715V6.85501Z"></path><path fill="#e6af45" d="M4.575 19.425H3.4275V20.5725H4.575V19.425Z"></path><path fill="#e6af45" d="M4.575 9.14249H3.4275V14.8575H4.575V9.14249Z"></path><path fill="#e6af45" d="M4.575 3.42749H3.4275V4.56749H4.575V3.42749Z"></path><path fill="#e6af45" d="M3.4275 20.5725H2.2875V21.7125H3.4275V20.5725Z"></path><path fill="#e6af45" d="M3.4275 2.28751H2.2875V3.42751H3.4275V2.28751Z"></path><path fill="#e6af45" d="M2.2875 15.9975H0V17.145H2.2875V15.9975Z"></path><path fill="#e6af45" d="M2.2875 11.43H0V12.57H2.2875V11.43Z"></path><path fill="#e6af45" d="M2.2875 6.85501H0V8.00251H2.2875V6.85501Z"></path></svg>