<svg xmlns="http://www.w3.org/2000/svg" viewBox="0 0 32 32" height="48" width="48"><title>search-user</title><g><path d="M29.72,23.62H28.19V22.1H26.67V20.57H25.14V17.53H23.62v3.04H22.1V22.1H20.57v1.52H17.53v1.52h3.04v1.53H22.1v1.52h1.52v1.53h1.52v1.52h4.58V29.72h1.52V25.14H29.72Zm0,4.57H28.19V26.67H26.67V25.14H25.14V23.62h1.53v1.52h1.52v1.53h1.53Z" fill="#e6af45"></path><rect x="25.14" y="9.91" width="1.53" height="7.62" fill="#e6af45"></rect><rect x="23.62" y="6.86" width="1.52" height="3.05" fill="#e6af45"></rect><rect x="22.1" y="5.34" width="1.52" height="1.52" fill="#e6af45"></rect><rect x="20.57" y="3.81" width="1.53" height="1.53" fill="#e6af45"></rect><rect x="17.53" y="19.05" width="1.52" height="1.52" fill="#e6af45"></rect><rect x="17.53" y="2.29" width="3.04" height="1.52" fill="#e6af45"></rect><rect x="9.91" y="20.57" width="7.62" height="1.53" fill="#e6af45"></rect><rect x="16" y="12.95" width="1.53" height="3.05" fill="#e6af45"></rect><rect x="9.91" y="25.14" width="7.62" height="1.53" fill="#e6af45"></rect><rect x="11.43" y="17.53" width="4.57" height="1.52" fill="#e6af45"></rect><rect x="9.91" y="0.76" width="7.62" height="1.53" fill="#e6af45"></rect><rect x="9.91" y="12.95" width="1.52" height="3.05" fill="#e6af45"></rect><rect x="6.86" y="23.62" width="3.05" height="1.52" fill="#e6af45"></rect><rect x="8.38" y="19.05" width="1.53" height="1.52" fill="#e6af45"></rect><rect x="6.86" y="2.29" width="3.05" height="1.52" fill="#e6af45"></rect><polygon points="8.38 11.43 9.91 11.43 9.91 9.91 17.53 9.91 17.53 11.43 19.05 11.43 19.05 19.05 20.57 19.05 20.57 8.38 19.05 8.38 19.05 6.86 17.53 6.86 17.53 5.34 9.91 5.34 9.91 6.86 8.38 6.86 8.38 8.38 6.86 8.38 6.86 19.05 8.38 19.05 8.38 11.43" fill="#e6af45"></polygon><rect x="5.33" y="22.1" width="1.53" height="1.52" fill="#e6af45"></rect><rect x="5.33" y="3.81" width="1.53" height="1.53" fill="#e6af45"></rect><rect x="3.81" y="20.57" width="1.52" height="1.53" fill="#e6af45"></rect><rect x="3.81" y="5.34" width="1.52" height="1.52" fill="#e6af45"></rect><rect x="2.29" y="17.53" width="1.52" height="3.04" fill="#e6af45"></rect><rect x="2.29" y="6.86" width="1.52" height="3.05" fill="#e6af45"></rect><rect x="0.76" y="9.91" width="1.53" height="7.62" fill="#e6af45"></rect></g></svg>