<svg xmlns="http://www.w3.org/2000/svg" viewBox="0 0 32 32" height="48" width="48"><title>interface-essential-wench-2</title><g><polygon points="30.48 25.9 28.95 25.9 28.95 27.43 32 27.43 32 21.33 30.48 21.33 30.48 25.9" fill="#e6af45"></polygon><polygon points="28.95 4.57 28.95 6.09 30.48 6.09 30.48 10.67 32 10.67 32 4.57 28.95 4.57" fill="#e6af45"></polygon><rect x="28.95" y="19.81" width="1.53" height="1.52" fill="#e6af45"></rect><rect x="28.95" y="10.67" width="1.53" height="1.52" fill="#e6af45"></rect><rect x="27.43" y="24.38" width="1.52" height="1.52" fill="#e6af45"></rect><rect x="27.43" y="6.09" width="1.52" height="1.53" fill="#e6af45"></rect><polygon points="22.86 22.86 22.86 27.43 24.38 27.43 24.38 28.95 25.91 28.95 25.91 30.48 21.34 30.48 21.34 32 28.95 32 28.95 28.95 27.43 28.95 27.43 27.43 25.91 27.43 25.91 24.38 27.43 24.38 27.43 22.86 22.86 22.86" fill="#e6af45"></polygon><rect x="22.86" y="12.19" width="6.09" height="1.52" fill="#e6af45"></rect><rect x="24.38" y="3.05" width="1.53" height="1.52" fill="#e6af45"></rect><polygon points="22.86 9.14 27.43 9.14 27.43 7.62 24.38 7.62 24.38 4.57 22.86 4.57 22.86 9.14" fill="#e6af45"></polygon><polygon points="25.91 1.52 25.91 3.05 27.43 3.05 27.43 0 21.34 0 21.34 1.52 25.91 1.52" fill="#e6af45"></polygon><rect x="19.81" y="28.95" width="1.53" height="1.53" fill="#e6af45"></rect><rect x="19.81" y="19.81" width="1.53" height="1.52" fill="#e6af45"></rect><polygon points="19.81 12.19 18.29 12.19 18.29 9.14 15.24 9.14 15.24 3.05 13.72 3.05 13.72 1.52 12.19 1.52 12.19 0 4.57 0 4.57 3.05 6.1 3.05 6.1 1.52 10.67 1.52 10.67 3.05 12.19 3.05 12.19 9.14 13.72 9.14 13.72 10.67 15.24 10.67 15.24 12.19 16.76 12.19 16.76 13.71 18.29 13.71 18.29 15.24 19.81 15.24 19.81 16.76 21.34 16.76 21.34 18.28 22.86 18.28 22.86 19.81 28.95 19.81 28.95 18.28 24.38 18.28 24.38 16.76 22.86 16.76 22.86 13.71 19.81 13.71 19.81 12.19" fill="#e6af45"></polygon><rect x="19.81" y="1.52" width="1.53" height="1.53" fill="#e6af45"></rect><rect x="18.29" y="22.86" width="1.52" height="6.09" fill="#e6af45"></rect><rect x="18.29" y="18.28" width="1.52" height="1.53" fill="#e6af45"></rect><rect x="18.29" y="3.05" width="1.52" height="6.09" fill="#e6af45"></rect><rect x="16.76" y="21.33" width="1.53" height="1.53" fill="#e6af45"></rect><rect x="16.76" y="16.76" width="1.53" height="1.52" fill="#e6af45"></rect><rect x="15.24" y="19.81" width="1.52" height="1.52" fill="#e6af45"></rect><rect x="15.24" y="15.24" width="1.52" height="1.52" fill="#e6af45"></rect><rect x="13.72" y="21.33" width="1.52" height="1.53" fill="#e6af45"></rect><rect x="13.72" y="18.28" width="1.52" height="1.53" fill="#e6af45"></rect><rect x="13.72" y="13.71" width="1.52" height="1.53" fill="#e6af45"></rect><rect x="12.19" y="22.86" width="1.53" height="6.09" fill="#e6af45"></rect><rect x="12.19" y="16.76" width="1.53" height="1.52" fill="#e6af45"></rect><rect x="12.19" y="12.19" width="1.53" height="1.52" fill="#e6af45"></rect><rect x="10.67" y="28.95" width="1.52" height="1.53" fill="#e6af45"></rect><rect x="10.67" y="15.24" width="1.52" height="1.52" fill="#e6af45"></rect><rect x="10.67" y="10.67" width="1.52" height="1.52" fill="#e6af45"></rect><rect x="9.15" y="16.76" width="1.52" height="1.52" fill="#e6af45"></rect><rect x="9.15" y="13.71" width="1.52" height="1.53" fill="#e6af45"></rect><polygon points="6.1 30.48 6.1 28.95 4.57 28.95 4.57 32 10.67 32 10.67 30.48 6.1 30.48" fill="#e6af45"></polygon><polygon points="9.15 22.86 4.57 22.86 4.57 24.38 7.62 24.38 7.62 27.43 9.15 27.43 9.15 22.86" fill="#e6af45"></polygon><rect x="3.05" y="12.19" width="6.1" height="1.52" fill="#e6af45"></rect><rect x="6.1" y="27.43" width="1.52" height="1.52" fill="#e6af45"></rect><rect x="6.1" y="3.05" width="1.52" height="1.52" fill="#e6af45"></rect><rect x="3.05" y="18.28" width="6.1" height="1.53" fill="#e6af45"></rect><polygon points="9.15 9.14 9.15 4.57 7.62 4.57 7.62 7.62 4.57 7.62 4.57 9.14 9.15 9.14" fill="#e6af45"></polygon><rect x="3.05" y="24.38" width="1.52" height="1.52" fill="#e6af45"></rect><rect x="3.05" y="6.09" width="1.52" height="1.53" fill="#e6af45"></rect><rect x="1.53" y="19.81" width="1.52" height="1.52" fill="#e6af45"></rect><rect x="1.53" y="10.67" width="1.52" height="1.52" fill="#e6af45"></rect><polygon points="1.53 21.33 0 21.33 0 27.43 3.05 27.43 3.05 25.9 1.53 25.9 1.53 21.33" fill="#e6af45"></polygon><polygon points="1.53 6.09 3.05 6.09 3.05 4.57 0 4.57 0 10.67 1.53 10.67 1.53 6.09" fill="#e6af45"></polygon></g></svg>