<svg xmlns="http://www.w3.org/2000/svg" viewBox="0 0 32 32" height="48" width="48"><title>business-products-wallet-money</title><g><path d="M30.47,15.235H28.95v-4.57H27.43v4.57H24.38v1.53H22.86v3.04h1.52v1.53h3.05v6.09h1.52v-6.09h1.52v-1.53H32v-3.04H30.47Zm-3.04,3.05H25.9v-1.52h1.53Z" fill="#e6af45"></path><rect x="25.9" y="27.425" width="1.53" height="1.53" fill="#e6af45"></rect><rect x="25.9" y="9.145" width="1.53" height="1.52" fill="#e6af45"></rect><rect x="3.05" y="28.955" width="22.85" height="1.52" fill="#e6af45"></rect><rect x="19.81" y="3.045" width="3.05" height="1.53" fill="#e6af45"></rect><rect x="16.76" y="4.575" width="3.05" height="1.52" fill="#e6af45"></rect><rect x="15.24" y="3.045" width="1.52" height="1.53" fill="#e6af45"></rect><rect x="12.19" y="1.525" width="3.05" height="1.52" fill="#e6af45"></rect><rect x="9.14" y="3.045" width="3.05" height="1.53" fill="#e6af45"></rect><rect x="6.09" y="4.575" width="3.05" height="1.52" fill="#e6af45"></rect><rect x="6.09" y="10.665" width="1.53" height="16.76" fill="#e6af45"></rect><polygon points="25.9 9.145 25.9 7.615 24.38 7.615 24.38 4.575 22.86 4.575 22.86 7.615 16.76 7.615 16.76 6.095 15.24 6.095 15.24 7.615 6.09 7.615 6.09 6.095 4.57 6.095 4.57 7.615 3.05 7.615 3.05 9.145 25.9 9.145" fill="#e6af45"></polygon><rect x="1.52" y="27.425" width="1.53" height="1.53" fill="#e6af45"></rect><rect x="1.52" y="9.145" width="1.53" height="1.52" fill="#e6af45"></rect><rect y="10.665" width="1.52" height="16.76" fill="#e6af45"></rect></g></svg>